<svg width="411" height="149" viewBox="0 0 411 149" fill="none" xmlns="http://www.w3.org/2000/svg">
<path d="M68.9805 120.391H71.9805V117.391H68.9805V120.391ZM0.0351562 120.391H-2.96484V123.391H0.0351562V120.391ZM0.0351562 94.3164L-2.6158 92.912L-2.96484 93.5708V94.3164H0.0351562ZM55.7969 4.08203V1.08203H54.1884L53.2982 2.42175L55.7969 4.08203ZM97.1055 4.08203H100.105V1.08203H97.1055V4.08203ZM97.1055 95.8789H94.1055V98.8789H97.1055V95.8789ZM115.562 95.8789H118.562V92.8789H115.562V95.8789ZM115.562 120.391V123.391H118.562V120.391H115.562ZM97.1055 120.391V117.391H94.1055V120.391H97.1055ZM97.1055 145V148H100.105V145H97.1055ZM68.9805 145H65.9805V148H68.9805V145ZM26.5 96.7578H23.5V99.7578H26.5V96.7578ZM69.6641 96.7578V99.7578H72.6641V96.7578H69.6641ZM69.6641 27.0312H72.6641V24.0312H69.6641V27.0312ZM68.1016 27.0312V24.0312H66.4999L65.6087 25.3622L68.1016 27.0312ZM26.5 95.1953L23.874 93.7447L23.5 94.4218V95.1953H26.5ZM68.9805 117.391H0.0351562V123.391H68.9805V117.391ZM3.03516 120.391V94.3164H-2.96484V120.391H3.03516ZM2.68612 95.7208C13.6162 75.0895 32.1354 45.1127 58.2956 5.74232L53.2982 2.42175C27.1146 41.8274 8.45933 72.0068 -2.6158 92.912L2.68612 95.7208ZM55.7969 7.08203H97.1055V1.08203H55.7969V7.08203ZM94.1055 4.08203V95.8789H100.105V4.08203H94.1055ZM97.1055 98.8789H115.562V92.8789H97.1055V98.8789ZM112.562 95.8789V120.391H118.562V95.8789H112.562ZM115.562 117.391H97.1055V123.391H115.562V117.391ZM94.1055 120.391V145H100.105V120.391H94.1055ZM97.1055 142H68.9805V148H97.1055V142ZM71.9805 145V120.391H65.9805V145H71.9805ZM26.5 99.7578H69.6641V93.7578H26.5V99.7578ZM72.6641 96.7578V27.0312H66.6641V96.7578H72.6641ZM69.6641 24.0312H68.1016V30.0312H69.6641V24.0312ZM65.6087 25.3622C50.5236 47.8919 36.6118 70.6861 23.874 93.7447L29.126 96.6459C41.7788 73.741 55.6014 51.0925 70.5944 28.7003L65.6087 25.3622ZM23.5 95.1953V96.7578H29.5V95.1953H23.5ZM164.039 128.984L166.432 127.175L166.431 127.173L164.039 128.984ZM164.039 19.9023L166.422 21.7251L166.423 21.7234L164.039 19.9023ZM245.973 19.9023L243.589 21.7234L243.591 21.7269L245.973 19.9023ZM246.07 128.984L243.679 127.173L243.677 127.175L246.07 128.984ZM224.195 111.797L226.841 113.211L226.846 113.201L224.195 111.797ZM224.098 37.0898L221.457 38.5134L221.459 38.5181L224.098 37.0898ZM186.012 37.1875L183.375 35.7567L183.373 35.7593L186.012 37.1875ZM186.012 111.797L188.666 110.399L188.662 110.392L188.659 110.385L186.012 111.797ZM205.055 145.613C188.477 145.613 175.72 139.457 166.432 127.175L161.646 130.794C172.15 144.683 186.736 151.613 205.055 151.613V145.613ZM166.431 127.173C156.998 114.72 152.098 97.213 152.098 74.2969H146.098C146.098 97.9953 151.158 116.947 161.648 130.796L166.431 127.173ZM152.098 74.2969C152.098 51.4456 156.998 34.0436 166.422 21.7251L161.656 18.0796C151.158 31.8027 146.098 50.6637 146.098 74.2969H152.098ZM166.423 21.7234C175.707 9.56916 188.466 3.46875 205.055 3.46875V-2.53125C186.748 -2.53125 172.163 4.32407 161.655 18.0813L166.423 21.7234ZM205.055 3.46875C221.574 3.46875 234.303 9.566 243.589 21.7234L248.357 18.0813C237.851 4.32723 223.301 -2.53125 205.055 -2.53125V3.46875ZM243.591 21.7269C253.081 34.1126 258.012 51.5482 258.012 74.3945H264.012C264.012 50.7565 258.917 31.864 248.354 18.0778L243.591 21.7269ZM258.012 74.3945C258.012 97.2433 253.112 114.719 243.679 127.173L248.462 130.796C258.95 116.948 264.012 98.0301 264.012 74.3945H258.012ZM243.677 127.175C234.389 139.457 221.632 145.613 205.055 145.613V151.613C223.373 151.613 237.96 144.683 248.463 130.794L243.677 127.175ZM205.055 127.59C214.585 127.59 221.875 122.505 226.841 113.211L221.549 110.383C217.401 118.146 211.931 121.59 205.055 121.59V127.59ZM226.846 113.201C231.801 103.851 234.129 90.7816 234.129 74.2969H228.129C228.129 90.3643 225.835 102.295 221.544 110.392L226.846 113.201ZM234.129 74.2969C234.129 57.9358 231.767 44.9545 226.736 35.6616L221.459 38.5181C225.804 46.5429 228.129 58.3663 228.129 74.2969H234.129ZM226.738 35.6663C221.82 26.5431 214.553 21.5898 205.055 21.5898V27.5898C211.963 27.5898 217.391 30.9699 221.457 38.5134L226.738 35.6663ZM205.055 21.5898C195.604 21.5898 188.347 26.5938 183.375 35.7567L188.649 38.6183C192.791 30.9843 198.23 27.5898 205.055 27.5898V21.5898ZM183.373 35.7593C178.343 45.0509 175.98 57.9984 175.98 74.2969H181.98C181.98 58.4339 184.305 46.6418 188.65 38.6157L183.373 35.7593ZM175.98 74.2969C175.98 90.7252 178.344 103.794 183.365 113.209L188.659 110.385C184.305 102.221 181.98 90.2904 181.98 74.2969H175.98ZM183.357 113.195C188.259 122.5 195.52 127.59 205.055 127.59V121.59C198.183 121.59 192.749 118.151 188.666 110.399L183.357 113.195ZM363.59 120.391H366.59V117.391H363.59V120.391ZM294.645 120.391H291.645V123.391H294.645V120.391ZM294.645 94.3164L291.994 92.912L291.645 93.5708V94.3164H294.645ZM350.406 4.08203V1.08203H348.798L347.908 2.42175L350.406 4.08203ZM391.715 4.08203H394.715V1.08203H391.715V4.08203ZM391.715 95.8789H388.715V98.8789H391.715V95.8789ZM410.172 95.8789H413.172V92.8789H410.172V95.8789ZM410.172 120.391V123.391H413.172V120.391H410.172ZM391.715 120.391V117.391H388.715V120.391H391.715ZM391.715 145V148H394.715V145H391.715ZM363.59 145H360.59V148H363.59V145ZM321.109 96.7578H318.109V99.7578H321.109V96.7578ZM364.273 96.7578V99.7578H367.273V96.7578H364.273ZM364.273 27.0312H367.273V24.0312H364.273V27.0312ZM362.711 27.0312V24.0312H361.109L360.218 25.3622L362.711 27.0312ZM321.109 95.1953L318.483 93.7447L318.109 94.4218V95.1953H321.109ZM363.59 117.391H294.645V123.391H363.59V117.391ZM297.645 120.391V94.3164H291.645V120.391H297.645ZM297.296 95.7208C308.226 75.0895 326.745 45.1127 352.905 5.74232L347.908 2.42175C321.724 41.8274 303.069 72.0068 291.994 92.912L297.296 95.7208ZM350.406 7.08203H391.715V1.08203H350.406V7.08203ZM388.715 4.08203V95.8789H394.715V4.08203H388.715ZM391.715 98.8789H410.172V92.8789H391.715V98.8789ZM407.172 95.8789V120.391H413.172V95.8789H407.172ZM410.172 117.391H391.715V123.391H410.172V117.391ZM388.715 120.391V145H394.715V120.391H388.715ZM391.715 142H363.59V148H391.715V142ZM366.59 145V120.391H360.59V145H366.59ZM321.109 99.7578H364.273V93.7578H321.109V99.7578ZM367.273 96.7578V27.0312H361.273V96.7578H367.273ZM364.273 24.0312H362.711V30.0312H364.273V24.0312ZM360.218 25.3622C345.133 47.8919 331.221 70.6861 318.483 93.7447L323.735 96.6459C336.388 73.741 350.211 51.0925 365.204 28.7003L360.218 25.3622ZM318.109 95.1953V96.7578H324.109V95.1953H318.109Z" fill="white" fill-opacity="0.3"/>
</svg>
