<svg width="163" height="163" viewBox="0 0 163 163" fill="none" xmlns="http://www.w3.org/2000/svg">
<path d="M33.4494 95.9729L26.6812 98.2551L27.9618 102.053L34.73 99.7706L35.2149 101.209L27.203 103.91L24.9564 97.2476L32.9682 94.546L33.4494 95.9729Z" fill="white"/>
<path d="M23.0541 88.9746C22.9036 87.7573 23.1797 86.7431 23.8824 85.932C24.5856 85.1248 25.6136 84.6376 26.9666 84.4704C28.3196 84.3032 29.4354 84.5254 30.3139 85.1371C31.1963 85.7483 31.713 86.6645 31.864 87.8857C32.0159 89.1146 31.7405 90.1346 31.0378 90.9457C30.3346 91.7529 29.3046 92.2403 27.9477 92.408C26.5948 92.5753 25.4785 92.3492 24.599 91.7297C23.72 91.1142 23.205 90.1958 23.0541 88.9746ZM24.3857 88.81C24.4782 89.5582 24.8287 90.1171 25.4372 90.4867C26.0462 90.8601 26.8198 90.9888 27.758 90.8728C28.7 90.7564 29.4195 90.4471 29.9163 89.9448C30.4204 89.4378 30.6257 88.8062 30.5323 88.0503C30.4403 87.3059 30.0881 86.7492 29.4757 86.3802C28.8677 86.0145 28.0945 85.8896 27.1564 86.0056C26.2182 86.1216 25.4988 86.4309 24.9981 86.9336C24.4978 87.4402 24.2937 88.0657 24.3857 88.81Z" fill="white"/>
<path d="M31.5106 77.8558C31.412 79.051 30.9389 79.9624 30.0915 80.5902C29.2401 81.2176 28.1332 81.4751 26.7706 81.3627C25.4003 81.2497 24.3486 80.8141 23.6154 80.0559C22.882 79.3017 22.5646 78.3269 22.6632 77.1318C22.7422 76.1741 23.0914 75.3857 23.7108 74.7666C24.3263 74.1471 25.0777 73.8289 25.9649 73.8119L25.8425 75.2952C25.3278 75.3585 24.9049 75.5667 24.574 75.9196C24.2392 76.2721 24.05 76.7131 24.0063 77.2426C23.9472 77.9589 24.1769 78.5481 24.6953 79.0103C25.2099 79.4721 25.9421 79.7423 26.892 79.8206C27.8419 79.899 28.6104 79.7527 29.1976 79.3817C29.7848 79.0108 30.1081 78.4652 30.1675 77.745C30.2115 77.2117 30.1109 76.7448 29.8656 76.3444C29.6165 75.9436 29.2605 75.6732 28.7978 75.5331L28.9202 74.0499C29.7761 74.2224 30.442 74.6556 30.9178 75.3494C31.3929 76.051 31.5905 76.8865 31.5106 77.8558Z" fill="white"/>
<path d="M31.9015 71.2304L23.8377 68.688L24.3698 67.0004L31.0076 66.4268L31.0393 66.3262L25.9308 62.0492L26.4628 60.3616L34.5266 62.9039L34.1038 64.2451L28.4317 62.4568L28.4071 62.5351L33.0632 66.4544L32.739 67.4826L26.6769 68.0227L26.6523 68.1009L32.3243 69.8892L31.9015 71.2304Z" fill="white"/>
<path d="M30.1443 52.2287C30.7577 51.1665 31.5892 50.5235 32.6387 50.2996C33.6863 50.0791 34.8003 50.3098 35.9809 50.9916C37.1614 51.6734 37.9179 52.5231 38.2505 53.5407C38.5864 54.5602 38.4467 55.6027 37.8313 56.6682C37.212 57.7405 36.3776 58.3886 35.3281 58.6125C34.2805 58.833 33.1648 58.6013 31.9809 57.9176C30.8003 57.2358 30.0457 56.3827 29.7171 55.3584C29.3865 54.3374 29.5289 53.2942 30.1443 52.2287ZM31.3062 52.8997C30.9292 53.5526 30.8721 54.2098 31.1351 54.8714C31.3961 55.5364 31.9359 56.1053 32.7545 56.578C33.5765 57.0528 34.337 57.2394 35.0362 57.138C35.744 57.037 36.2884 56.6568 36.6694 55.9972C37.0445 55.3477 37.0988 54.6912 36.8325 54.0276C36.5676 53.3694 36.0258 52.8039 35.2072 52.3311C34.3886 51.8584 33.6281 51.6717 32.9255 51.7712C32.2211 51.8741 31.6813 52.2503 31.3062 52.8997Z" fill="white"/>
<path d="M42.5059 49.4035L37.1273 44.6949L35.4137 46.6523L34.4306 45.7916L38.8574 40.7349L39.8406 41.5956L38.1231 43.5574L43.5017 48.266L42.5059 49.4035Z" fill="white"/>
<path d="M44.8257 35.3523C45.4905 34.8327 46.193 34.6182 46.9332 34.7088C47.6704 34.8019 48.3012 35.1839 48.8257 35.8548C49.3405 36.5134 49.5468 37.2148 49.4445 37.9592C49.3391 38.706 48.9494 39.3429 48.2755 39.8697L46.8306 40.9993L48.5375 43.1827L47.3465 44.1138L42.1391 37.4526L44.8257 35.3523ZM46.0583 40.0114L47.2354 39.0912C47.6632 38.7568 47.9098 38.3904 47.9753 37.9922C48.0439 37.5915 47.9242 37.1942 47.6162 36.8003C47.2987 36.3941 46.9387 36.1747 46.5364 36.1421C46.1372 36.1071 45.7222 36.258 45.2913 36.5948L44.1096 37.5187L46.0583 40.0114Z" fill="white"/>
<path d="M59.6286 35.9704L54.7927 38.5324L50.8344 31.0612L55.6703 28.4991L56.282 29.6537L52.782 31.508L53.8326 33.4911L57.1411 31.7382L57.7171 32.8255L54.4086 34.5784L55.5169 36.6701L59.0169 34.8158L59.6286 35.9704Z" fill="white"/>
<path d="M64.3764 34.0066L62.1968 27.1986L59.7192 27.9918L59.3207 26.7474L65.7214 24.6982L66.1198 25.9426L63.6366 26.7376L65.8162 33.5457L64.3764 34.0066Z" fill="white"/>
<path d="M70.2014 23.5695L71.7017 23.3841L72.0611 26.2916L73.8405 26.0717C74.6934 25.9663 75.4185 26.1325 76.0157 26.5703C76.6174 27.0116 76.9685 27.6393 77.0691 28.4534C77.1703 29.2714 76.9905 29.9666 76.5299 30.5392C76.0689 31.1078 75.4196 31.4439 74.5823 31.5474L71.2386 31.9607L70.2014 23.5695ZM74.0309 30.3344C74.5658 30.2683 74.9648 30.0891 75.2279 29.7968C75.4909 29.5045 75.5929 29.12 75.534 28.6431C75.475 28.1663 75.2822 27.8162 74.9554 27.5929C74.6292 27.3734 74.1966 27.297 73.6577 27.3636L72.2156 27.5419L72.5829 30.5134L74.0309 30.3344Z" fill="white"/>
<path d="M91.6011 29.4766C91.4798 30.2484 91.1211 30.8326 90.525 31.2292C89.9288 31.6259 89.214 31.7587 88.3805 31.6277L85.0927 31.1111L86.4051 22.7585L91.7131 23.5926L91.5102 24.8834L87.6957 24.284L87.3965 26.1883L89.1446 26.463C89.9897 26.5958 90.6396 26.9391 91.0942 27.493C91.5516 28.0552 91.7205 28.7164 91.6011 29.4766ZM88.2016 30.3125C88.7303 30.3956 89.1575 30.3441 89.4833 30.1581C89.8091 29.972 90.0056 29.6648 90.073 29.2365C90.1415 28.8004 90.0492 28.4439 89.7962 28.1669C89.5431 27.8898 89.1504 27.7095 88.6178 27.6258L87.2055 27.4039L86.7834 30.0897L88.2016 30.3125Z" fill="white"/>
<path d="M99.3951 32.2228L96.4599 31.1907L95.0573 32.9894L93.6146 32.4821L99.2494 25.5009L100.852 26.0646L100.883 35.038L99.3522 34.4996L99.3951 32.2228ZM97.1881 30.1797L99.4599 30.9786L99.533 27.3087L99.439 27.2756L97.1881 30.1797Z" fill="white"/>
<path d="M106.681 32.4292L107.666 32.984C108.054 33.2025 108.427 33.2759 108.786 33.2043C109.143 33.1362 109.414 32.937 109.6 32.6068C109.784 32.2801 109.815 31.9572 109.695 31.6382C109.569 31.3119 109.302 31.0338 108.893 30.8038C108.485 30.5739 108.098 30.4884 107.733 30.5474C107.374 30.6049 107.083 30.7979 106.863 31.1264L105.627 30.4307C106.041 29.7759 106.597 29.3852 107.296 29.2587C107.998 29.1341 108.747 29.296 109.544 29.7444C110.293 30.166 110.8 30.6938 111.066 31.3278C111.334 31.9671 111.302 32.5812 110.97 33.1701C110.74 33.5785 110.414 33.8677 109.991 34.0376C109.563 34.2089 109.125 34.2267 108.677 34.091L108.628 34.1778C109.089 34.5048 109.382 34.9075 109.508 35.3859C109.632 35.8817 109.554 36.3781 109.274 36.8751C108.916 37.5116 108.348 37.8869 107.571 38.0008C106.796 38.1114 106.004 37.9386 105.194 37.4825C104.373 37.0207 103.82 36.4425 103.534 35.7481C103.247 35.0483 103.275 34.3536 103.618 33.6639L104.885 34.3768C104.722 34.7291 104.726 35.0852 104.895 35.4451C105.065 35.805 105.376 36.1123 105.828 36.3672C106.274 36.6183 106.695 36.7115 107.09 36.647C107.479 36.584 107.772 36.3788 107.967 36.0316C108.161 35.6879 108.181 35.3452 108.028 35.0036C107.871 34.6548 107.553 34.3462 107.077 34.0779L106.071 33.5116L106.681 32.4292Z" fill="white"/>
<path d="M110.86 40.8409C110.628 40.6496 110.481 40.4931 110.419 40.3714L111.243 39.3721C111.344 39.5011 111.461 39.6203 111.594 39.7296C112.028 40.0873 112.501 40.1763 113.014 39.9965L114.962 33.1739L116.196 34.1913L114.591 39.2618L114.668 39.3251L119.289 36.7404L120.51 37.7466L114.673 40.7565C113.832 41.1872 113.152 41.4219 112.634 41.4607C112.006 41.5046 111.414 41.298 110.86 40.8409Z" fill="white"/>
<path d="M130.507 73.9776C130.355 72.788 130.629 71.7982 131.328 71.0082C132.03 70.2178 133.06 69.7361 134.416 69.5633C135.78 69.3895 136.899 69.5973 137.774 70.1868C138.648 70.7724 139.16 71.66 139.312 72.8496C139.433 73.8028 139.255 74.6465 138.778 75.3807C138.305 76.1145 137.636 76.5817 136.771 76.7824L136.583 75.3061C137.073 75.1373 137.444 74.8459 137.694 74.432C137.949 74.0176 138.042 73.5469 137.975 73.02C137.884 72.307 137.537 71.7782 136.934 71.4337C136.335 71.0888 135.563 70.9765 134.617 71.097C133.672 71.2175 132.95 71.5201 132.453 72.0048C131.955 72.4896 131.752 73.0904 131.844 73.8072C131.911 74.3381 132.107 74.7739 132.43 75.1147C132.757 75.4551 133.161 75.6457 133.643 75.6867L133.831 77.163C132.958 77.1719 132.217 76.8864 131.607 76.3064C130.997 75.7187 130.63 74.9425 130.507 73.9776Z" fill="white"/>
<path d="M130.985 86.0819L138.105 86.6429L138.42 82.6475L131.299 82.0865L131.419 80.5736L139.848 81.2377L139.295 88.2472L130.866 87.5831L130.985 86.0819Z" fill="white"/>
<path d="M129.008 95.9253L130.424 90.6391L138.591 92.8271L137.175 98.1133L135.913 97.7752L136.938 93.9492L134.77 93.3684L133.801 96.985L132.613 96.6666L133.582 93.05L131.295 92.4374L130.27 96.2635L129.008 95.9253Z" fill="white"/>
<path d="M123.812 104.06L125.317 104.782L128.221 98.7276L135.845 102.384L135.191 103.747L128.746 100.656L127.01 104.275L133.456 107.366L132.804 108.724L126.359 105.633L125.903 106.583L123.219 105.296L123.812 104.06Z" fill="white"/>
<path d="M124.945 116.155L125.006 116.076L122.708 109.181L123.597 108.017L130.316 113.149L129.402 114.346L124.615 110.69L124.555 110.769L126.866 117.666L125.977 118.83L119.258 113.698L120.168 112.506L124.945 116.155Z" fill="white"/>
<path d="M115.219 120.701L117.549 118.639L116.661 116.539L117.806 115.525L121.161 123.846L119.888 124.972L112.035 120.63L113.251 119.555L115.219 120.701ZM118.078 119.768L116.274 121.363L119.444 123.214L119.519 123.148L118.078 119.768Z" fill="white"/>
<path d="M105.921 124.607L109.58 130.748L111.89 129.372L110.11 125.937C109.606 124.961 109.364 124.154 109.385 123.518C109.406 122.806 109.758 122.246 110.439 121.841C110.63 121.727 110.802 121.652 110.953 121.616L111.652 122.789C111.537 122.826 111.424 122.877 111.314 122.943C110.961 123.153 110.806 123.472 110.848 123.902C110.879 124.243 111.05 124.709 111.361 125.301L113.727 129.799L108.95 132.644L104.622 125.381L105.921 124.607Z" fill="white"/>
<path d="M99.0871 134.219L99.1809 134.185L100.995 127.148L102.374 126.653L105.229 134.611L103.811 135.12L101.777 129.45L101.684 129.484L99.8792 136.531L98.5004 137.025L95.6451 129.067L97.057 128.56L99.0871 134.219Z" fill="white"/>
<path d="M88.9624 130.327C90.1502 130.162 91.1431 130.424 91.9409 131.114C92.7393 131.808 93.2326 132.832 93.4208 134.186C93.6101 135.548 93.415 136.669 92.8355 137.55C92.2598 138.431 91.3781 138.954 90.1903 139.119C89.2385 139.251 88.3928 139.083 87.6532 138.614C86.9142 138.149 86.4394 137.485 86.2289 136.623L87.703 136.418C87.8774 136.906 88.1729 137.274 88.5896 137.519C89.0068 137.769 89.4786 137.857 90.0048 137.784C90.7167 137.685 91.2414 137.332 91.5791 136.725C91.9172 136.122 92.0207 135.349 91.8895 134.405C91.7583 133.46 91.4475 132.742 90.9571 132.251C90.4668 131.759 89.8637 131.563 89.148 131.662C88.6179 131.736 88.1843 131.936 87.8472 132.263C87.5106 132.594 87.3246 133 87.289 133.482L85.8149 133.687C85.7961 132.814 86.0732 132.07 86.6462 131.454C87.227 130.837 87.999 130.461 88.9624 130.327Z" fill="white"/>
<path d="M80.3645 131.165L79.9612 138.302L82.5586 138.449L82.4849 139.754L75.7749 139.375L75.8486 138.07L78.4519 138.217L78.8552 131.08L80.3645 131.165Z" fill="white"/>
<path d="M67.4848 138.167C66.2966 137.863 65.4533 137.235 64.9549 136.285C64.4602 135.336 64.382 134.201 64.7204 132.88C65.0588 131.559 65.6731 130.602 66.5634 130.007C67.4546 129.409 68.4962 129.263 69.6882 129.568C70.8877 129.875 71.7367 130.504 72.2352 131.455C72.7299 132.404 72.8075 133.541 72.4682 134.865C72.1298 136.186 71.5117 137.142 70.6138 137.735C69.7198 138.329 68.6768 138.473 67.4848 138.167ZM67.8179 136.867C68.5482 137.055 69.1965 136.932 69.7627 136.501C70.3327 136.07 70.7351 135.397 70.9697 134.481C71.2053 133.562 71.18 132.779 70.8939 132.133C70.6059 131.479 70.093 131.057 69.3551 130.868C68.6286 130.682 67.9817 130.806 67.4145 131.242C66.8521 131.674 66.4535 132.348 66.2189 133.264C65.9842 134.18 66.0095 134.962 66.2947 135.612C66.5836 136.263 67.0913 136.681 67.8179 136.867Z" fill="white"/>
<path d="M63.3572 127.997L59.7289 135.634L56.5376 134.118C55.8143 133.774 55.3275 133.333 55.0773 132.795C54.8254 132.26 54.8394 131.698 55.1194 131.109C55.3105 130.707 55.6112 130.411 56.0215 130.221C56.4317 130.031 56.8434 129.997 57.2565 130.12L57.3018 130.024C56.8101 129.73 56.4834 129.339 56.3215 128.852C56.1614 128.36 56.1995 127.866 56.4358 127.369C56.7543 126.698 57.2387 126.28 57.8888 126.113C58.5424 125.948 59.2768 126.059 60.0918 126.446L63.3572 127.997ZM59.8897 131.773L58.5719 131.147C57.584 130.677 56.9216 130.797 56.5846 131.507C56.4254 131.842 56.416 132.157 56.5565 132.453C56.697 132.749 56.9736 132.995 57.3864 133.191L58.8789 133.901L59.8897 131.773ZM59.8886 127.679C58.8619 127.191 58.1599 127.344 57.7828 128.138C57.414 128.914 57.7606 129.555 58.8226 130.059L60.3574 130.789L61.4763 128.433L59.8886 127.679Z" fill="white"/>
<path d="M129.209 54.693C128.704 56.0589 127.188 56.7574 125.822 56.2531C124.456 55.7488 123.758 54.2327 124.262 52.8668C124.766 51.5009 126.283 50.8025 127.648 51.3068C129.014 51.8111 129.713 53.3271 129.209 54.693Z" fill="white"/>
<path d="M45.7066 118.476C45.2023 119.842 43.6862 120.54 42.3203 120.036C40.9544 119.532 40.2559 118.015 40.7602 116.65C41.2645 115.284 42.7806 114.585 44.1465 115.089C45.5124 115.594 46.2109 117.11 45.7066 118.476Z" fill="white"/>
</svg>
