<svg width="15" height="16" viewBox="0 0 15 16" fill="none" xmlns="http://www.w3.org/2000/svg">
<g clip-path="url(#clip0_66_10479)">
<path d="M2.67858 15.1449C2.04538 15.1449 1.48305 14.8803 0.991608 14.351C0.471812 13.7912 0.211914 13.1118 0.211914 12.3128C0.211914 11.5138 0.471812 10.8344 0.991608 10.2745L9.14296 0.961271C9.55879 0.503242 10.0384 0.208067 10.5818 0.0757475C11.1253 -0.0565722 11.6758 -0.0209476 12.2334 0.182621C12.791 0.38619 13.3061 0.737346 13.7786 1.23609C13.9298 1.40912 14.0692 1.59997 14.1968 1.80863C14.3244 2.01728 14.4283 2.23612 14.5087 2.46513C14.589 2.69415 14.6504 2.93589 14.693 3.19035C14.7355 3.44481 14.7568 3.69927 14.7568 3.95373C14.7379 5.03264 14.3976 5.93344 13.7361 6.6561L7.56939 13.7098C7.48434 13.8115 7.38038 13.865 7.25751 13.8701C7.13465 13.8752 7.02833 13.8319 6.93855 13.7403C6.84877 13.6487 6.80151 13.5342 6.79679 13.3968C6.79206 13.2594 6.83223 13.1398 6.91728 13.038L13.084 5.98433C13.5849 5.43469 13.84 4.75274 13.8495 3.93846C13.8589 3.12419 13.6179 2.4575 13.1265 1.9384C12.8241 1.60251 12.4886 1.34805 12.12 1.17502C11.7514 1.00198 11.3545 0.946003 10.9292 1.00707C10.5039 1.06814 10.1258 1.2768 9.79507 1.63305L1.64372 10.9463C1.29404 11.3229 1.11919 11.7759 1.11919 12.3051C1.11919 12.8344 1.29404 13.2874 1.64372 13.664C1.80438 13.837 1.97922 13.9668 2.16824 14.0533C2.35725 14.1398 2.55572 14.1729 2.76364 14.1525C3.17948 14.1322 3.56696 13.9235 3.92609 13.5265L10.4046 6.10647C10.4519 6.05558 10.4968 6.00214 10.5393 5.94616C10.5818 5.89018 10.6267 5.82402 10.674 5.74768C10.7212 5.67134 10.7591 5.58991 10.7874 5.5034C10.8158 5.41688 10.8347 5.33036 10.8441 5.24385C10.8536 5.15733 10.8394 5.06827 10.8016 4.97666C10.7638 4.88506 10.7071 4.79854 10.6315 4.71711C10.4519 4.51354 10.2771 4.42194 10.1069 4.4423C9.92738 4.46265 9.72418 4.58988 9.49736 4.82399L4.62073 10.4119C4.56403 10.473 4.49787 10.5163 4.42226 10.5417C4.34666 10.5672 4.26869 10.5697 4.18835 10.5494C4.10802 10.529 4.0395 10.4883 3.9828 10.4272C3.88829 10.3356 3.84104 10.2236 3.84104 10.0913C3.84104 9.95901 3.88357 9.84195 3.96862 9.74017L8.84526 4.13694C9.23274 3.7298 9.62495 3.50588 10.0219 3.46517C10.4755 3.42445 10.8914 3.60766 11.2694 4.0148C11.6285 4.3914 11.7868 4.83416 11.7443 5.34309C11.7018 5.85201 11.4726 6.33039 11.0568 6.77825L4.5782 14.2136C4.04895 14.7836 3.45828 15.0889 2.80617 15.1296C2.78727 15.1296 2.766 15.1322 2.74238 15.1373C2.71875 15.1424 2.69748 15.1449 2.67858 15.1449Z" fill="white" fill-opacity="0.51"/>
</g>
<defs>
<clipPath id="clip0_66_10479">
<rect width="14.9701" height="15.1455" fill="white"/>
</clipPath>
</defs>
</svg>
