<svg width="16" height="16" viewBox="0 0 16 16" fill="none" xmlns="http://www.w3.org/2000/svg">
<path d="M5.99984 11.3332H3.99984C3.5621 11.3332 3.12864 11.247 2.72423 11.0794C2.31981 10.9119 1.95234 10.6664 1.64281 10.3569C1.01769 9.73174 0.666504 8.88389 0.666504 7.99984C0.666504 7.11578 1.01769 6.26794 1.64281 5.64281C2.26794 5.01769 3.11578 4.6665 3.99984 4.6665H5.99984M9.99984 4.6665H11.9998C12.4376 4.6665 12.871 4.75272 13.2754 4.92024C13.6799 5.08775 14.0473 5.33329 14.3569 5.64281C14.6664 5.95234 14.9119 6.31981 15.0794 6.72423C15.247 7.12864 15.3332 7.5621 15.3332 7.99984C15.3332 8.43758 15.247 8.87103 15.0794 9.27545C14.9119 9.67987 14.6664 10.0473 14.3569 10.3569C14.0473 10.6664 13.6799 10.9119 13.2754 11.0794C12.871 11.247 12.4376 11.3332 11.9998 11.3332H9.99984V4.6665Z" stroke="white" stroke-opacity="0.51" stroke-linecap="round" stroke-linejoin="round"/>
<path d="M5.3335 8H10.6668" stroke="white" stroke-opacity="0.51" stroke-linecap="round" stroke-linejoin="round"/>
</svg>
