<svg width="50" height="50" viewBox="0 0 50 50" fill="none" xmlns="http://www.w3.org/2000/svg">
<path d="M28.125 42.1875H21.875C21.4606 42.1875 21.0632 42.3521 20.7701 42.6451C20.4771 42.9382 20.3125 43.3356 20.3125 43.75C20.3125 44.1644 20.4771 44.5618 20.7701 44.8549C21.0632 45.1479 21.4606 45.3125 21.875 45.3125H28.125C28.5394 45.3125 28.9368 45.1479 29.2299 44.8549C29.5229 44.5618 29.6875 44.1644 29.6875 43.75C29.6875 43.3356 29.5229 42.9382 29.2299 42.6451C28.9368 42.3521 28.5394 42.1875 28.125 42.1875Z" fill="white"/>
<path d="M25 21.0938C26.2944 21.0938 27.3438 20.0444 27.3438 18.75C27.3438 17.4556 26.2944 16.4062 25 16.4062C23.7056 16.4062 22.6562 17.4556 22.6562 18.75C22.6562 20.0444 23.7056 21.0938 25 21.0938Z" fill="white"/>
<path d="M42.8943 28.0974L36.9886 21.0107C36.7998 18.6764 36.2749 16.3816 35.43 14.1974C33.1611 8.29662 29.1496 4.43197 26.9603 2.65346C26.4051 2.2066 25.7145 1.96187 25.0019 1.95949C24.2892 1.95711 23.5969 2.19723 23.0388 2.64037C20.8208 4.41713 16.758 8.27905 14.466 14.1806C13.5928 16.4142 13.0598 18.7662 12.8845 21.158L7.1017 28.0974C6.79708 28.4652 6.58022 28.8976 6.4676 29.3617C6.35497 29.8258 6.34954 30.3094 6.4517 30.7759L8.86635 41.6417C8.98076 42.1602 9.22551 42.641 9.57747 43.0386C9.92943 43.4361 10.377 43.7373 10.8778 43.9138C11.3786 44.0902 11.9161 44.1359 12.4395 44.0468C12.9629 43.9576 13.455 43.7364 13.8691 43.404L19.296 39.0624H30.6999L36.1267 43.404C36.6783 43.8481 37.3649 44.0904 38.073 44.091C38.4288 44.0906 38.7819 44.0299 39.1173 43.9113C39.6187 43.7365 40.067 43.4361 40.4193 43.0388C40.7716 42.6415 41.0161 42.1605 41.1296 41.6417L43.5443 30.7761C43.6465 30.3096 43.641 29.8259 43.5284 29.3618C43.4158 28.8976 43.1989 28.4652 42.8943 28.0974ZM24.9915 5.08002C38.7195 16.2353 33.0906 30.666 30.3203 35.9372H19.6619C10.2851 18.804 21.3312 8.01283 24.9915 5.08002ZM11.9169 40.9638L9.50229 30.098L13.0037 25.8962C13.4475 29.5469 14.6936 33.2828 16.7419 37.1039L11.9169 40.9638ZM38.0791 40.9638L33.2451 37.0966C35.2672 33.2487 36.4874 29.4807 36.9058 25.7925L40.4937 30.098L38.0791 40.9638Z" fill="url(#paint0_linear_62_7285)"/>
<defs>
<linearGradient id="paint0_linear_62_7285" x1="43.5692" y1="2.14284" x2="6.42634" y2="44.2857" gradientUnits="userSpaceOnUse">
<stop stop-color="#1C9AE7"/>
<stop offset="1" stop-color="#6C5AD7"/>
</linearGradient>
</defs>
</svg>
