<svg width="23" height="29" viewBox="0 0 23 29" fill="none" xmlns="http://www.w3.org/2000/svg">
<path d="M2.16097 3.77702L2.15665 6.82941V21.9317C2.15665 23.171 2.64896 24.3596 3.52527 25.2359C4.40158 26.1122 5.59012 26.6045 6.82941 26.6045H19.2172C18.994 27.2352 18.5808 27.7813 18.0344 28.1675C17.488 28.5537 16.8354 28.7611 16.1663 28.7611H6.82941C5.01813 28.7611 3.28105 28.0416 2.00029 26.7609C0.719525 25.4801 0 23.743 0 21.9317V6.82941C0 5.42039 0.901481 4.21985 2.16097 3.77702ZM13.124 0C13.9823 0 14.8062 0.340752 15.4129 0.948928L22.0525 7.59142C22.6592 8.19816 23 9.02201 23 9.87892V21.9317C23 22.7897 22.6592 23.6125 22.0525 24.2192C21.4458 24.8259 20.623 25.1667 19.765 25.1667H6.83228C5.97431 25.1667 5.15148 24.8259 4.5448 24.2192C3.93813 23.6125 3.5973 22.7897 3.5973 21.9317V3.23498C3.5973 2.37701 3.93813 1.55418 4.5448 0.947504C5.15148 0.340827 5.97431 0 6.83228 0H13.124ZM12.9399 2.15665H6.83228C6.54629 2.15665 6.27201 2.27026 6.06979 2.47249C5.86756 2.67471 5.75395 2.94899 5.75395 3.23498V21.9317C5.75395 22.527 6.23704 23.0101 6.83228 23.0101H19.765C20.051 23.0101 20.3253 22.8965 20.5275 22.6942C20.7297 22.492 20.8433 22.2177 20.8433 21.9317V10.0687H16.1749C15.3554 10.0688 14.5664 9.75794 13.9673 9.19884C13.3682 8.63975 13.0036 7.87411 12.9471 7.05657L12.9399 6.83516V2.15665ZM15.0966 3.68213L15.098 6.83516C15.098 7.38151 15.5035 7.83153 16.0297 7.90342L16.1763 7.91348L19.3251 7.91205L15.098 3.68213H15.0966Z" fill="#6F7D94" fill-opacity="0.3"/>
</svg>
