<svg width="21" height="23" viewBox="0 0 21 23" fill="none" xmlns="http://www.w3.org/2000/svg">
<path fill-rule="evenodd" clip-rule="evenodd" d="M17.4844 12.557C17.6434 13.5107 17.8023 14.3055 18.1202 15.2592L19.0739 17.9613L18.2792 19.0739H12.716C12.716 19.8687 12.3981 20.6634 11.7623 21.2992C11.1265 21.935 10.3317 22.2529 9.53697 22.2529C8.74222 22.2529 7.78853 21.935 7.31168 21.2992C6.67588 20.6634 6.35798 19.8687 6.35798 19.0739H0.794748L0 17.9613L0.953697 15.2592C1.2716 13.9876 1.5895 12.716 1.5895 11.4444V7.94748C1.5895 6.83483 1.74845 5.72218 2.22529 4.76849C2.70214 3.65584 3.33794 2.86109 4.13269 2.06634C4.92744 1.2716 5.88113 0.794748 6.99378 0.476849C7.78853 0.158949 8.74222 0 9.53697 0C9.21907 0.476849 8.90117 1.11265 8.58328 1.74844C8.26538 1.74844 7.94748 1.74844 7.47063 2.06634C6.67588 2.22529 5.88113 2.70214 5.24534 3.33794C4.60954 3.81479 3.97374 4.60954 3.65584 5.40428C3.33794 6.19903 3.17899 6.99378 3.17899 7.94748V11.4444C3.17899 12.8749 2.86109 14.3055 2.54319 15.736L1.90739 17.4845H17.1666L16.5308 15.736C16.2526 14.8999 16.0952 13.9399 15.9538 13.0752L15.895 12.716C16.5308 12.716 17.0076 12.716 17.4844 12.557ZM9.53697 20.6634C9.85487 20.6634 10.3317 20.5045 10.6496 20.1866C10.9675 19.8687 11.1265 19.5508 11.1265 19.0739H7.94748C7.94748 19.5508 8.10643 19.8687 8.42433 20.1866C8.74223 20.5045 9.21907 20.6634 9.53697 20.6634ZM20.6634 4.76849C20.6634 6.03317 20.161 7.24605 19.2668 8.14032C18.3725 9.03458 17.1596 9.53697 15.895 9.53697C14.6303 9.53697 13.4174 9.03458 12.5231 8.14032C11.6289 7.24605 11.1265 6.03317 11.1265 4.76849C11.1265 3.50381 11.6289 2.29092 12.5231 1.39666C13.4174 0.502393 14.6303 0 15.895 0C17.1596 0 18.3725 0.502393 19.2668 1.39666C20.161 2.29092 20.6634 3.50381 20.6634 4.76849Z" fill="white"/>
<circle cx="16" cy="5" r="5" fill="#FE375B"/>
</svg>
