<svg width="35" height="35" viewBox="0 0 35 35" fill="none" xmlns="http://www.w3.org/2000/svg">
<g clip-path="url(#clip0_62_7843)">
<path d="M32.6726 17.9534C32.5318 17.6653 32.5318 17.3349 32.6726 17.0468L33.978 14.3764C34.7048 12.8895 34.1289 11.1173 32.667 10.3416L30.0413 8.94845C29.758 8.7982 29.5638 8.53078 29.5084 8.21503L28.9949 5.28728C28.7089 3.6572 27.2011 2.56181 25.5627 2.79362L22.6197 3.20992C22.302 3.25477 21.9879 3.15264 21.7574 2.92972L19.6212 0.863092C18.4316 -0.287663 16.5682 -0.287731 15.3787 0.863092L13.2424 2.92993C13.0119 3.15291 12.6978 3.25484 12.3802 3.21013L9.43711 2.79382C7.7982 2.56188 6.29088 3.6574 6.00494 5.28749L5.49143 8.2151C5.43599 8.53092 5.24178 8.79827 4.95857 8.94859L2.3329 10.3417C0.870976 11.1173 0.29512 12.8897 1.02191 14.3766L2.32723 17.0469C2.46805 17.3351 2.46805 17.6655 2.32723 17.9536L1.02184 20.624C0.295052 22.1108 0.870908 23.883 2.33283 24.6587L4.9585 26.0519C5.24178 26.2021 5.43599 26.4695 5.49143 26.7853L6.00494 29.713C6.26525 31.197 7.53768 32.2377 9.00009 32.2375C9.14412 32.2375 9.29027 32.2274 9.43717 32.2066L12.3802 31.7903C12.6976 31.7453 13.0119 31.8476 13.2424 32.0705L15.3787 34.1372C15.9736 34.7126 16.7366 35.0003 17.4999 35.0002C18.263 35.0001 19.0265 34.7125 19.6211 34.1372L21.7574 32.0705C21.9879 31.8476 22.3021 31.7458 22.6197 31.7903L25.5627 32.2066C27.2018 32.4385 28.7089 31.3431 28.9949 29.713L29.5085 26.7854C29.5639 26.4695 29.7581 26.2022 30.0413 26.0519L32.667 24.6587C34.1289 23.8831 34.7048 22.1108 33.978 20.6239L32.6726 17.9534ZM13.4626 8.41621C15.5032 8.41621 17.1634 10.0764 17.1634 12.1171C17.1634 14.1577 15.5032 15.818 13.4626 15.818C11.4219 15.818 9.76167 14.1577 9.76167 12.1171C9.76167 10.0764 11.4219 8.41621 13.4626 8.41621ZM11.5523 24.875C11.3553 25.0721 11.0969 25.1707 10.8387 25.1707C10.5804 25.1707 10.322 25.0721 10.125 24.875C9.73085 24.4808 9.73085 23.8418 10.125 23.4476L23.4474 10.1252C23.8415 9.73103 24.4807 9.73103 24.8748 10.1252C25.269 10.5193 25.269 11.1584 24.8748 11.5526L11.5523 24.875ZM21.5371 26.5841C19.4965 26.5841 17.8362 24.9239 17.8362 22.8832C17.8362 20.8426 19.4965 19.1823 21.5371 19.1823C23.5778 19.1823 25.238 20.8426 25.238 22.8832C25.238 24.9239 23.5778 26.5841 21.5371 26.5841Z" fill="white"/>
<path d="M21.5372 21.2007C20.6097 21.2007 19.855 21.9553 19.855 22.8829C19.855 23.8104 20.6096 24.565 21.5372 24.565C22.4648 24.565 23.2194 23.8104 23.2194 22.8829C23.2194 21.9553 22.4648 21.2007 21.5372 21.2007Z" fill="white"/>
<path d="M13.4634 10.4346C12.5359 10.4346 11.7812 11.1892 11.7812 12.1167C11.7812 13.0443 12.5359 13.799 13.4634 13.799C14.391 13.799 15.1457 13.0444 15.1457 12.1167C15.1456 11.1893 14.391 10.4346 13.4634 10.4346Z" fill="white"/>
</g>
<defs>
<clipPath id="clip0_62_7843">
<rect width="35" height="35" fill="white"/>
</clipPath>
</defs>
</svg>
