<svg width="20" height="20" viewBox="0 0 20 20" fill="none" xmlns="http://www.w3.org/2000/svg">
<path d="M10 0C15.523 0 20 4.477 20 10C20 15.523 15.523 20 10 20C8.35779 20.0026 6.74043 19.5989 5.29201 18.825L9.1306e-06 20L1.17601 14.71C0.401771 13.2609 -0.00221457 11.6429 9.1306e-06 10C9.1306e-06 4.477 4.47701 0 10 0ZM10 2C8.61824 1.99968 7.25995 2.35725 6.05745 3.03789C4.85495 3.71853 3.84924 4.69903 3.1383 5.88386C2.42736 7.0687 2.03542 8.41748 2.00067 9.79881C1.96592 11.1801 2.28954 12.5469 2.94001 13.766L3.29001 14.42L2.63401 17.366L5.58201 16.712L6.23501 17.061C7.39319 17.6802 8.68672 18.0028 10 18C12.1217 18 14.1566 17.1571 15.6569 15.6569C17.1572 14.1566 18 12.1217 18 10C18 7.87827 17.1572 5.84344 15.6569 4.34315C14.1566 2.84285 12.1217 2 10 2ZM10 5C10.7957 5 11.5587 5.31607 12.1213 5.87868C12.6839 6.44129 13 7.20435 13 8V9H14V14H6.00001V9H7.00001V8C7.00001 7.20435 7.31608 6.44129 7.87869 5.87868C8.4413 5.31607 9.20436 5 10 5ZM12 11H8.00001V12H12V11ZM10 7C9.44801 7 9.00001 7.45 9.00001 8V9H11V8C11 7.73478 10.8947 7.48043 10.7071 7.29289C10.5196 7.10536 10.2652 7 10 7Z" fill="white"/>
</svg>
