<svg width="21" height="22" viewBox="0 0 21 22" fill="none" xmlns="http://www.w3.org/2000/svg">
<path fill-rule="evenodd" clip-rule="evenodd" d="M14.3373 3.40276V5.88238L15.9267 4.30878V1.3841L15.132 0.589355H0.826538L0.0317899 1.3841V2.1566L0 2.17885V18.5348L0.572218 19.2659L8.5197 21.9999L9.53697 21.2528V19.6633H15.132L15.9267 18.8686V15.9916L14.3373 14.4021V18.0738H9.53697V4.89689L9.01244 4.16572L3.23621 2.17885H14.3373V3.40276ZM7.94748 20.1084L1.5895 17.9784V3.32329L7.94748 5.45321V20.1084ZM18.311 10.8893H10.4112V9.29979H18.2474L15.7042 6.7566L16.8328 5.64395L20.7588 9.55411V10.6827L16.801 14.6246L15.6883 13.512L18.311 10.8893Z" fill="white"/>
</svg>
