<svg width="49" height="49" viewBox="0 0 49 49" fill="none" xmlns="http://www.w3.org/2000/svg">
<g clip-path="url(#clip0_66_8995)">
<path fill-rule="evenodd" clip-rule="evenodd" d="M18.0523 15.4627C19.4272 12.4766 21.9933 10.6717 24.2575 9.07933C25.8361 7.96907 27.1993 7.01032 27.8197 5.88389C29.3256 3.15796 28.7844 0.512144 28.7788 0.485634C28.739 0.299299 28.8355 0.110859 29.0098 0.0339133C29.1843 -0.0425538 29.3883 0.0136241 29.4989 0.168855C29.5273 0.208859 32.3103 4.20984 29.8064 8.27877C28.6661 10.1268 26.7174 11.7066 24.9979 13.1005L24.9965 13.1017L24.9961 13.1019C23.1186 14.624 21.3451 16.0616 21.3108 17.329C21.2137 20.9678 23.8251 26.0401 23.8514 26.0908C23.9381 26.2579 23.8971 26.4631 23.7527 26.5839C23.6783 26.6463 23.5866 26.6776 23.495 26.6776C23.4088 26.6776 23.3223 26.6498 23.25 26.5942C22.9391 26.3549 15.6641 20.6723 18.0523 15.4627ZM33.9067 10.3587C34.0033 10.5338 33.9564 10.7533 33.7967 10.8736C33.7501 10.9084 29.1462 14.3879 28.1297 16.2204C27.262 17.7915 27.8339 18.6421 28.6258 19.8197L28.6259 19.8199C29.1371 20.58 29.7163 21.4412 29.9595 22.62C30.6125 25.7215 26.9716 28.2957 26.8162 28.4037C26.7469 28.4519 26.6667 28.4756 26.5869 28.4756C26.4931 28.4756 26.3994 28.4427 26.3244 28.3779C26.1856 28.2581 26.1455 28.0592 26.2272 27.8952C26.5104 27.3244 27.1837 25.6391 26.8995 24.7066C26.7985 24.3831 26.4922 24.0041 26.1373 23.5652L26.1371 23.5649C25.2324 22.446 23.9937 20.9138 23.9937 18.0135C23.9937 13.8059 33.0278 10.3235 33.4124 10.1773C33.5994 10.1063 33.81 10.1835 33.9067 10.3587Z" fill="url(#paint0_linear_66_8995)"/>
<path d="M10.2804 28.5424C10.1255 29.0061 10.1986 29.466 10.4916 29.8729C11.4709 31.2326 14.9399 31.9812 20.2599 31.9812C20.2601 31.9812 20.2603 31.9812 20.2605 31.9812C20.9814 31.9812 21.7424 31.967 22.5219 31.9391C31.0276 31.6347 34.1823 28.9848 34.3125 28.8722C34.4543 28.7494 34.4922 28.545 34.4041 28.3796C34.3158 28.2143 34.1257 28.1312 33.9439 28.1813C30.9483 28.9992 25.3547 29.2895 21.4749 29.2895C17.1335 29.2895 14.9226 28.9768 14.3813 28.7458C14.659 28.3645 16.3721 27.6834 18.4949 27.2659C18.6978 27.2261 18.8372 27.0387 18.8171 26.8329C18.797 26.6272 18.6242 26.4702 18.4174 26.4702C17.173 26.4702 10.9327 26.5701 10.2804 28.5424Z" fill="white"/>
<path d="M38.7423 25.813C36.9879 25.813 35.3243 26.6923 35.2543 26.7295C35.0921 26.8164 35.0098 27.0025 35.0543 27.1813C35.0989 27.3598 35.2594 27.4852 35.4435 27.4854C35.4807 27.4854 39.1857 27.5157 39.5212 29.6326C39.8185 31.4588 36.0157 34.4178 34.5253 35.4039C34.3643 35.5104 34.3018 35.7162 34.3766 35.8942C34.4402 36.0457 34.5877 36.1405 34.7468 36.1405C34.7745 36.1405 34.8026 36.1376 34.8306 36.1316C35.1843 36.0559 43.4828 34.2272 42.6054 29.3957C42.0701 26.4346 40.209 25.813 38.7423 25.813Z" fill="white"/>
<path d="M33.0511 34.8129C33.08 34.6581 33.0156 34.5007 32.8867 34.4103L30.897 33.0165C30.7999 32.9486 30.6773 32.9272 30.5634 32.9574C30.5427 32.9626 28.4619 33.5097 25.4409 33.8451C24.2419 33.9796 22.899 34.0506 21.5571 34.0506C18.5369 34.0506 16.5621 33.6957 16.2745 33.4354C16.2364 33.3623 16.2485 33.3291 16.2553 33.3106C16.3075 33.1653 16.5876 32.9927 16.7681 32.9244C16.9674 32.8506 17.0749 32.6341 17.0129 32.4308C16.9511 32.2273 16.7414 32.1075 16.5345 32.1572C14.5385 32.6389 13.5625 33.3124 13.6335 34.1591C13.7596 35.6603 17.2367 36.4308 20.1763 36.6345C20.599 36.6634 21.0562 36.678 21.5348 36.678C21.5351 36.678 21.5353 36.678 21.5355 36.678C26.4235 36.678 32.6898 35.1444 32.7524 35.1288C32.9054 35.0915 33.0221 34.9679 33.0511 34.8129Z" fill="white"/>
<path d="M18.0498 38.0343C18.2005 37.9363 18.2673 37.75 18.2138 37.5784C18.1605 37.4068 18 37.294 17.8197 37.2964C17.5522 37.3035 15.2023 37.4095 15.0378 38.9057C14.988 39.3528 15.1161 39.7614 15.4186 40.1198C16.2623 41.1197 18.5399 41.714 22.3802 41.9366C22.8345 41.9639 23.296 41.9776 23.752 41.9776C28.6343 41.9776 31.9225 40.4489 32.0602 40.3838C32.1937 40.3207 32.2818 40.1895 32.2896 40.0421C32.2974 39.8947 32.2239 39.7549 32.0979 39.6778L29.5833 38.1427C29.496 38.0895 29.3916 38.0719 29.2921 38.0923C29.2762 38.0956 27.6796 38.4268 25.27 38.7539C24.8141 38.8159 24.2431 38.8474 23.5732 38.8474C21.1663 38.8474 18.4891 38.4541 17.9756 38.1966C17.9681 38.1486 17.9776 38.0875 18.0498 38.0343Z" fill="white"/>
<path d="M21.4767 46.5932C32.66 46.5837 38.6622 44.5949 39.8185 43.3434C40.2279 42.9006 40.2721 42.4815 40.2373 42.2076C40.1514 41.5339 39.5376 41.1214 39.4681 41.0766C39.3002 40.9687 39.0749 40.9969 38.944 41.1479C38.8134 41.2989 38.8103 41.5196 38.9414 41.6706C39.0119 41.7613 39.0527 41.9132 38.8465 42.1196C38.3842 42.5513 33.722 43.8618 25.9594 44.2555C24.8961 44.3107 23.7807 44.3389 22.6446 44.3391C15.6944 44.3391 10.6078 43.387 9.94009 42.8323C10.1974 42.4625 11.9967 41.8717 13.9101 41.5375C14.1257 41.4999 14.2713 41.2967 14.2379 41.0804C14.2045 40.8643 14.0052 40.7154 13.7873 40.7437C13.7333 40.751 13.5501 40.7619 13.338 40.775C10.181 40.9677 6.53266 41.3973 6.34231 43.024C6.2845 43.5196 6.43179 43.9696 6.78025 44.3613C7.63287 45.3193 10.0836 46.593 21.4763 46.593C21.4765 46.5932 21.4765 46.5932 21.4767 46.5932Z" fill="white"/>
<path d="M42.0154 43.6964C41.8573 43.6233 41.6705 43.6602 41.5526 43.7875C41.5363 43.8052 39.8548 45.5633 34.7994 46.5958C32.864 46.9836 29.2311 47.1803 24.0016 47.1803C18.7623 47.1803 13.7768 46.9741 13.7271 46.972C13.5189 46.9619 13.3408 47.1133 13.3124 47.3183C13.284 47.5231 13.4161 47.7162 13.6172 47.764C13.669 47.7763 18.8938 49.0003 26.0375 49.0003C29.4637 49.0003 32.7979 48.7221 35.9474 48.173C41.8198 47.1435 42.231 44.2316 42.2456 44.1082C42.2661 43.9356 42.1733 43.7695 42.0154 43.6964Z" fill="white"/>
</g>
<defs>
<linearGradient id="paint0_linear_66_8995" x1="25.7642" y1="0" x2="17.9995" y2="28" gradientUnits="userSpaceOnUse">
<stop stop-color="#FB662F"/>
<stop offset="1" stop-color="#FE3A59"/>
</linearGradient>
<clipPath id="clip0_66_8995">
<rect width="49" height="49" fill="white"/>
</clipPath>
</defs>
</svg>
