<svg width="21" height="22" viewBox="0 0 21 22" fill="none" xmlns="http://www.w3.org/2000/svg">
<g clip-path="url(#clip0_3_2304)">
<path fill-rule="evenodd" clip-rule="evenodd" d="M7.73717 6.9424C8.32644 5.60173 9.4262 4.79138 10.3965 4.07642C11.0731 3.57794 11.6573 3.14747 11.9232 2.64173C12.5686 1.41785 12.3367 0.229927 12.3343 0.218024C12.3172 0.134364 12.3586 0.0497581 12.4333 0.0152111C12.508 -0.0191211 12.5955 0.0061017 12.6429 0.0757973C12.655 0.0937583 13.8478 1.89012 12.7746 3.71698C12.286 4.5467 11.4508 5.256 10.7139 5.88184L10.7133 5.88236L10.7131 5.88249C9.90845 6.56586 9.1484 7.21134 9.13367 7.78034C9.09208 9.4141 10.2112 11.6915 10.2225 11.7142C10.2597 11.7893 10.2421 11.8814 10.1802 11.9356C10.1483 11.9636 10.109 11.9777 10.0698 11.9777C10.0328 11.9777 9.99574 11.9652 9.96478 11.9402C9.83152 11.8328 6.71366 9.28142 7.73717 6.9424ZM14.532 4.65081C14.5734 4.72944 14.5533 4.82797 14.4848 4.88198C14.4648 4.89762 12.4918 6.45984 12.0561 7.28261C11.6842 7.98799 11.9294 8.3699 12.2687 8.89863L12.2688 8.89872C12.4878 9.23996 12.7361 9.62666 12.8403 10.1559C13.1202 11.5484 11.5598 12.7042 11.4932 12.7526C11.4635 12.7743 11.4291 12.785 11.3949 12.785C11.3547 12.785 11.3146 12.7702 11.2824 12.7411C11.2229 12.6873 11.2058 12.598 11.2407 12.5243C11.3621 12.2681 11.6507 11.5114 11.5289 11.0928C11.4856 10.9475 11.3543 10.7773 11.2022 10.5803L11.2021 10.5801C10.8144 10.0778 10.2835 9.38984 10.2835 8.08768C10.2835 6.19855 14.1553 4.63504 14.3201 4.56938C14.4003 4.5375 14.4905 4.57217 14.532 4.65081Z" fill="url(#paint0_linear_3_2304)"/>
<path d="M4.40504 12.8149C4.33868 13.0231 4.37001 13.2296 4.49556 13.4123C4.91528 14.0227 6.40197 14.3588 8.68196 14.3588C8.68208 14.3588 8.68216 14.3588 8.68225 14.3588C8.99118 14.3588 9.31733 14.3525 9.65141 14.3399C13.2967 14.2032 14.6487 13.0135 14.7045 12.963C14.7653 12.9078 14.7815 12.816 14.7438 12.7418C14.7059 12.6676 14.6244 12.6303 14.5466 12.6528C13.2627 13.02 10.8655 13.1503 9.2027 13.1503C7.3421 13.1503 6.39455 13.0099 6.16257 12.9062C6.28159 12.735 7.01578 12.4292 7.92555 12.2418C8.0125 12.2239 8.07226 12.1398 8.06365 12.0474C8.05503 11.955 7.98096 11.8845 7.89232 11.8845C7.35904 11.8845 4.6846 11.9294 4.40504 12.8149Z" fill="#41B0EB"/>
<path d="M16.6032 11.5895C15.8513 11.5895 15.1384 11.9843 15.1083 12.001C15.0388 12.04 15.0036 12.1236 15.0226 12.2038C15.0418 12.284 15.1106 12.3403 15.1894 12.3404C15.2054 12.3404 16.7932 12.354 16.937 13.3044C17.0644 14.1244 15.4347 15.4529 14.7959 15.8956C14.7269 15.9435 14.7002 16.0358 14.7322 16.1158C14.7595 16.1838 14.8227 16.2263 14.8908 16.2263C14.9027 16.2263 14.9148 16.225 14.9268 16.2224C15.0784 16.1884 18.6348 15.3673 18.2588 13.198C18.0294 11.8686 17.2318 11.5895 16.6032 11.5895Z" fill="#41B0EB"/>
<path d="M14.1652 15.6302C14.1776 15.5607 14.1499 15.49 14.0947 15.4494L13.242 14.8236C13.2004 14.7931 13.1479 14.7835 13.099 14.7971C13.0901 14.7994 12.1984 15.0451 10.9037 15.1957C10.3898 15.256 9.81429 15.2879 9.23917 15.2879C7.94479 15.2879 7.09847 15.1286 6.97522 15.0117C6.95889 14.9789 6.96406 14.964 6.96697 14.9557C6.98937 14.8905 7.10938 14.8129 7.18674 14.7823C7.27217 14.7491 7.31823 14.6519 7.29165 14.5607C7.26516 14.4693 7.17529 14.4155 7.08662 14.4378C6.23119 14.6541 5.81291 14.9565 5.84335 15.3366C5.8974 16.0107 7.38759 16.3566 8.64739 16.448C8.82856 16.461 9.02449 16.4676 9.22961 16.4676C9.22973 16.4676 9.22982 16.4676 9.22994 16.4676C11.3248 16.4676 14.0103 15.779 14.0372 15.772C14.1027 15.7552 14.1527 15.6998 14.1652 15.6302Z" fill="#41B0EB"/>
<path d="M7.73478 17.0767C7.79938 17.0327 7.82801 16.949 7.80508 16.872C7.78224 16.7949 7.71345 16.7443 7.63618 16.7454C7.52154 16.7486 6.51444 16.7962 6.44393 17.4679C6.42261 17.6687 6.47748 17.8521 6.60714 18.013C6.96873 18.4619 7.94482 18.7288 9.59067 18.8287C9.78537 18.841 9.98314 18.8471 10.1786 18.8471C12.271 18.8471 13.6802 18.1608 13.7392 18.1316C13.7965 18.1032 13.8342 18.0443 13.8376 17.9781C13.8409 17.9119 13.8094 17.8492 13.7554 17.8146L12.6777 17.1254C12.6403 17.1015 12.5956 17.0936 12.5529 17.1027C12.5461 17.1042 11.8618 17.2529 10.8292 17.3998C10.6338 17.4276 10.3891 17.4417 10.102 17.4417C9.07042 17.4417 7.92304 17.2652 7.703 17.1495C7.6998 17.128 7.70386 17.1006 7.73478 17.0767Z" fill="#41B0EB"/>
<path d="M9.20429 20.9194C13.9971 20.9152 16.5695 20.0222 17.0651 19.4603C17.2405 19.2616 17.2595 19.0734 17.2446 18.9504C17.2077 18.6479 16.9447 18.4627 16.9149 18.4426C16.8429 18.3941 16.7464 18.4068 16.6903 18.4746C16.6343 18.5424 16.633 18.6415 16.6892 18.7093C16.7194 18.75 16.7369 18.8182 16.6485 18.9109C16.4504 19.1047 14.4523 19.6931 11.1255 19.8699C10.6697 19.8947 10.1917 19.9073 9.70484 19.9074C6.72615 19.9074 4.54621 19.4799 4.26004 19.2309C4.37033 19.0648 5.14143 18.7996 5.96146 18.6495C6.05386 18.6327 6.11629 18.5414 6.10198 18.4443C6.08766 18.3473 6.00223 18.2804 5.90883 18.2931C5.8857 18.2964 5.8072 18.3013 5.7163 18.3072C4.36328 18.3937 2.79971 18.5866 2.71813 19.3169C2.69336 19.5395 2.75648 19.7415 2.90582 19.9173C3.27123 20.3475 4.32152 20.9193 9.20412 20.9193C9.20421 20.9194 9.20421 20.9194 9.20429 20.9194Z" fill="#41B0EB"/>
<path d="M18.0061 19.6187C17.9383 19.5858 17.8582 19.6024 17.8077 19.6596C17.8007 19.6675 17.0801 20.4569 14.9135 20.9205C14.084 21.0946 12.527 21.1829 10.2858 21.1829C8.04042 21.1829 5.90378 21.0903 5.88249 21.0894C5.79324 21.0848 5.71691 21.1528 5.70477 21.2448C5.69259 21.3368 5.74919 21.4235 5.83537 21.445C5.8576 21.4505 8.09677 22 11.1584 22C12.6268 22 14.0557 21.8751 15.4055 21.6286C17.9222 21.1664 18.0984 19.859 18.1047 19.8036C18.1135 19.7261 18.0737 19.6515 18.0061 19.6187Z" fill="#41B0EB"/>
</g>
<defs>
<linearGradient id="paint0_linear_3_2304" x1="11.0423" y1="-1.52588e-05" x2="7.41538" y2="12.4845" gradientUnits="userSpaceOnUse">
<stop stop-color="#FB662F"/>
<stop offset="1" stop-color="#FE3A59"/>
</linearGradient>
<clipPath id="clip0_3_2304">
<rect width="21" height="22" fill="white"/>
</clipPath>
</defs>
</svg>
