<svg width="49" height="49" viewBox="0 0 49 49" fill="none" xmlns="http://www.w3.org/2000/svg">
<g clip-path="url(#clip0_4_5440)">
<path fill-rule="evenodd" clip-rule="evenodd" d="M18.0527 15.4627C19.4277 12.4766 21.9938 10.6717 24.258 9.07933C25.8366 7.96907 27.1998 7.01032 27.8201 5.88389C29.3261 3.15796 28.7849 0.512144 28.7793 0.485634C28.7395 0.299299 28.836 0.110859 29.0103 0.0339133C29.1848 -0.0425538 29.3888 0.0136241 29.4994 0.168855C29.5278 0.208859 32.3108 4.20984 29.8068 8.27877C28.6666 10.1268 26.7178 11.7066 24.9984 13.1005L24.997 13.1017L24.9966 13.1019C23.1191 14.624 21.3456 16.0616 21.3113 17.329C21.2142 20.9678 23.8256 26.0401 23.8519 26.0908C23.9386 26.2579 23.8976 26.4631 23.7532 26.5839C23.6788 26.6463 23.5871 26.6776 23.4955 26.6776C23.4093 26.6776 23.3227 26.6498 23.2505 26.5942C22.9395 26.3549 15.6646 20.6723 18.0527 15.4627ZM33.9072 10.3587C34.0038 10.5338 33.9569 10.7533 33.7971 10.8736C33.7505 10.9084 29.1467 14.3879 28.1302 16.2204C27.2625 17.7915 27.8344 18.6421 28.6263 19.8197L28.6264 19.8199C29.1375 20.58 29.7168 21.4412 29.96 22.62C30.613 25.7215 26.9721 28.2957 26.8167 28.4037C26.7474 28.4519 26.6672 28.4756 26.5874 28.4756C26.4936 28.4756 26.3999 28.4427 26.3249 28.3779C26.186 28.2581 26.146 28.0592 26.2277 27.8952C26.5109 27.3244 27.1842 25.6391 26.9 24.7066C26.799 24.3831 26.4927 24.0041 26.1378 23.5652L26.1376 23.5649C25.2329 22.446 23.9941 20.9138 23.9941 18.0135C23.9941 13.8059 33.0283 10.3235 33.4129 10.1773C33.5999 10.1063 33.8104 10.1835 33.9072 10.3587Z" fill="url(#paint0_linear_4_5440)"/>
<path d="M10.2804 28.5422C10.1255 29.0059 10.1986 29.4658 10.4916 29.8728C11.4709 31.2324 14.9399 31.981 20.2599 31.981C20.2601 31.981 20.2603 31.981 20.2605 31.981C20.9814 31.981 21.7424 31.9669 22.5219 31.9389C31.0276 31.6345 34.1823 28.9846 34.3125 28.872C34.4543 28.7492 34.4922 28.5448 34.4041 28.3794C34.3158 28.2141 34.1257 28.1311 33.9439 28.1811C30.9483 28.999 25.3547 29.2894 21.4749 29.2894C17.1335 29.2894 14.9226 28.9766 14.3813 28.7457C14.659 28.3643 16.3721 27.6833 18.4949 27.2657C18.6978 27.2259 18.8372 27.0385 18.8171 26.8327C18.797 26.627 18.6242 26.47 18.4174 26.47C17.173 26.47 10.9327 26.5699 10.2804 28.5422Z" fill="white"/>
<path d="M38.7428 25.8129C36.9884 25.8129 35.3248 26.6923 35.2548 26.7295C35.0925 26.8164 35.0102 27.0024 35.0547 27.1812C35.0994 27.3597 35.2599 27.4852 35.444 27.4853C35.4812 27.4853 39.1862 27.5157 39.5217 29.6326C39.819 31.4588 36.0162 34.4177 34.5258 35.4039C34.3648 35.5104 34.3023 35.7161 34.3771 35.8941C34.4407 36.0456 34.5882 36.1404 34.7472 36.1404C34.775 36.1404 34.8031 36.1375 34.8311 36.1316C35.1848 36.0559 43.4832 34.2272 42.6058 29.3956C42.0706 26.4345 40.2095 25.8129 38.7428 25.8129Z" fill="white"/>
<path d="M33.0511 34.8126C33.08 34.6578 33.0156 34.5004 32.8867 34.41L30.897 33.0162C30.7999 32.9483 30.6773 32.9269 30.5634 32.9571C30.5427 32.9623 28.4619 33.5094 25.4409 33.8448C24.2419 33.9793 22.899 34.0503 21.5571 34.0503C18.5369 34.0503 16.5621 33.6954 16.2745 33.4351C16.2364 33.362 16.2485 33.3288 16.2553 33.3103C16.3075 33.165 16.5876 32.9924 16.7681 32.9241C16.9674 32.8503 17.0749 32.6338 17.0129 32.4305C16.9511 32.227 16.7414 32.1072 16.5345 32.1569C14.5385 32.6386 13.5625 33.3121 13.6335 34.1588C13.7596 35.66 17.2367 36.4305 20.1763 36.6342C20.599 36.6631 21.0562 36.6777 21.5348 36.6777C21.5351 36.6777 21.5353 36.6777 21.5355 36.6777C26.4235 36.6777 32.6898 35.1441 32.7524 35.1285C32.9054 35.0912 33.0221 34.9676 33.0511 34.8126Z" fill="white"/>
<path d="M18.0498 38.0344C18.2005 37.9364 18.2673 37.75 18.2138 37.5784C18.1605 37.4068 18 37.2941 17.8197 37.2965C17.5522 37.3036 15.2023 37.4096 15.0378 38.9057C14.988 39.3529 15.1161 39.7614 15.4186 40.1198C16.2623 41.1197 18.5399 41.7141 22.3802 41.9367C22.8345 41.964 23.296 41.9776 23.752 41.9776C28.6343 41.9776 31.9225 40.449 32.0602 40.3839C32.1937 40.3207 32.2818 40.1895 32.2896 40.0421C32.2974 39.8947 32.2239 39.7549 32.0979 39.6779L29.5833 38.1428C29.496 38.0896 29.3916 38.072 29.2921 38.0924C29.2762 38.0957 27.6796 38.4268 25.27 38.754C24.8141 38.816 24.2431 38.8475 23.5732 38.8475C21.1663 38.8475 18.4891 38.4542 17.9756 38.1967C17.9681 38.1486 17.9776 38.0876 18.0498 38.0344Z" fill="white"/>
<path d="M21.4767 46.5932C32.66 46.5838 38.6622 44.5949 39.8185 43.3434C40.2279 42.9007 40.2721 42.4815 40.2373 42.2077C40.1514 41.534 39.5376 41.1215 39.4681 41.0767C39.3002 40.9687 39.0749 40.997 38.944 41.148C38.8134 41.299 38.8103 41.5197 38.9414 41.6706C39.0119 41.7613 39.0527 41.9132 38.8465 42.1197C38.3842 42.5514 33.722 43.8618 25.9594 44.2556C24.8961 44.3108 23.7807 44.3389 22.6446 44.3391C15.6944 44.3391 10.6078 43.3871 9.94009 42.8324C10.1974 42.4626 11.9967 41.8718 13.9101 41.5376C14.1257 41.5 14.2713 41.2968 14.2379 41.0805C14.2045 40.8643 14.0052 40.7155 13.7873 40.7437C13.7333 40.7511 13.5501 40.762 13.338 40.775C10.181 40.9678 6.53266 41.3974 6.34231 43.0241C6.2845 43.5197 6.43179 43.9697 6.78025 44.3613C7.63287 45.3193 10.0836 46.593 21.4763 46.593C21.4765 46.5932 21.4765 46.5932 21.4767 46.5932Z" fill="white"/>
<path d="M42.0154 43.6961C41.8573 43.6229 41.6705 43.6599 41.5526 43.7872C41.5363 43.8049 39.8548 45.563 34.7994 46.5955C32.864 46.9833 29.2311 47.1799 24.0016 47.1799C18.7623 47.1799 13.7768 46.9738 13.7271 46.9717C13.5189 46.9616 13.3408 47.113 13.3124 47.318C13.284 47.5228 13.4161 47.7159 13.6172 47.7637C13.669 47.776 18.8938 49 26.0375 49C29.4637 49 32.7979 48.7218 35.9474 48.1727C41.8198 47.1432 42.231 44.2313 42.2456 44.1079C42.2661 43.9353 42.1733 43.7692 42.0154 43.6961Z" fill="white"/>
</g>
<defs>
<linearGradient id="paint0_linear_4_5440" x1="25.7647" y1="0" x2="18" y2="28" gradientUnits="userSpaceOnUse">
<stop stop-color="#FB662F"/>
<stop offset="1" stop-color="#FE3A59"/>
</linearGradient>
<clipPath id="clip0_4_5440">
<rect width="49" height="49" fill="white"/>
</clipPath>
</defs>
</svg>
