<svg width="238" height="37" viewBox="0 0 238 37" fill="none" xmlns="http://www.w3.org/2000/svg">
<path fill-rule="evenodd" clip-rule="evenodd" d="M4.31598 36.8942H0.975494C0.696782 36.8942 0 36.8942 0 36.4762C0 36.1988 0.139357 36.0581 0.557426 35.9187C3.62056 34.9432 4.31598 33.2737 4.31598 30.9087V5.98826C4.31598 3.75992 3.6192 2.08899 0.557426 0.975495C0.139357 0.975495 0 0.696785 0 0.557428C0 0.00135642 0.696782 0.139362 0.975494 0.139362H28.5396C34.8039 0.139362 39.956 5.15077 39.956 11.415C39.956 17.6807 34.8039 22.6907 28.5396 22.6907H14.6175V31.1833C14.7582 33.4103 15.4537 34.9405 18.3774 35.916C18.7955 36.0567 18.9335 36.1961 18.9335 36.4734C18.9335 36.8915 18.2381 36.8915 17.9594 36.8915H4.31598V36.8942V36.8942ZM209.8 23.3902H216.343L209.8 12.2525L209.102 11.1377L203.257 23.3902H209.8V23.3902ZM209.8 0.00271478H214.255L232.909 32.8597C233.466 33.6917 234.162 34.5292 234.999 34.9446C235.695 35.502 236.529 35.6427 237.225 35.9201C237.505 36.0608 237.782 36.2002 237.782 36.4775C237.782 36.8956 237.087 36.8956 236.807 36.8956H220.241C219.964 36.8956 219.126 36.8956 219.126 36.4775C219.126 36.2002 219.406 36.0594 219.686 35.9201C220.521 35.6427 221.076 35.2247 221.353 34.3899C221.633 33.4144 221.353 32.8597 220.658 31.6041C219.712 29.5951 218.738 27.5997 217.735 25.6186H202.142L202.004 25.8959C201.864 26.4533 200.751 28.4016 199.914 30.4906C198.802 32.7176 198.384 33.2737 198.661 34.3885C198.802 35.2233 199.496 35.6414 200.331 35.9187C200.611 36.0594 200.751 36.1988 200.751 36.4762C200.751 36.8942 200.053 36.8942 199.776 36.8942H192.118C191.841 36.8942 191.143 36.8942 191.143 36.4762C191.143 36.1988 191.283 36.0581 191.7 35.9187C192.398 35.6414 193.23 35.5007 193.927 34.9432C194.762 34.5279 195.46 33.6904 196.015 32.8583L196.99 30.768L207.57 8.63333L206.037 5.98826C204.648 3.75992 203.254 2.36771 201.723 1.53292C201.027 1.11485 200.331 1.11486 199.635 0.836143C199.217 0.696786 199.078 0.557427 199.217 0.278714C199.217 1.73383e-06 199.495 0.139356 199.635 0H209.8V0.00271478V0.00271478ZM168.173 36.7535H168.731C194.348 36.7535 194.07 0.140714 168.731 0.140714H147.709C147.291 0.140714 146.597 0.0013557 146.597 0.558781C146.597 0.698137 146.875 0.976847 147.152 0.976847C150.215 1.95099 150.912 3.62191 151.05 5.7109V31.1874C150.912 33.4144 150.215 34.9446 147.152 35.9201C146.875 36.0608 146.597 36.2002 146.597 36.4775C146.597 36.8956 147.293 36.8956 147.709 36.8956H161.213V36.7549H168.173V36.7535ZM168.173 2.78578C172.074 2.78578 175.276 5.98827 175.276 9.88483V26.87C175.276 30.768 172.074 33.9705 168.173 33.9705H161.212V2.78578H168.173V2.78578ZM115.133 23.3902H121.676L115.133 12.2525L114.437 11.1377L108.591 23.3902H115.133ZM115.133 0.00271478H119.727L138.382 32.8597C138.8 33.6917 139.497 34.5292 140.332 34.9446C141.027 35.502 141.865 35.6427 142.699 35.9201C142.977 36.0608 143.254 36.2002 143.254 36.4775C143.254 36.8956 142.419 36.8956 142.142 36.8956H125.578C125.297 36.8956 124.602 36.8956 124.602 36.4775C124.602 36.2002 124.74 36.0594 125.157 35.9201C125.855 35.6427 126.549 35.2247 126.69 34.3899C126.967 33.4144 126.69 32.8597 126.132 31.6041C125.157 29.5165 124.045 27.5668 123.072 25.6186H107.475L107.337 25.8959C107.197 26.4533 106.222 28.4016 105.248 30.4906C104.274 32.7176 103.718 33.2737 103.996 34.3885C104.275 35.2233 104.831 35.6414 105.667 35.9187C105.945 36.0594 106.223 36.1988 106.223 36.4762C106.223 36.8942 105.528 36.8942 105.111 36.8942H97.5913C97.3126 36.8942 96.4764 36.8942 96.4764 36.4762C96.4764 36.1988 96.7552 36.0581 97.0339 35.9187C97.87 35.6414 98.5654 35.5007 99.4016 34.9432C100.097 34.5279 100.933 33.6904 101.35 32.8583L102.324 30.768L113.045 8.63333L111.513 5.98826C110.121 3.75992 108.59 2.36771 107.197 1.53292C106.361 1.11485 105.805 1.11486 104.969 0.836143C104.69 0.696786 104.412 0.557427 104.552 0.278714C104.69 1.73383e-06 104.969 0.139356 105.11 0H115.133V0.00271478V0.00271478ZM69.191 24.3657C72.3935 25.4778 76.2914 25.7552 79.3532 24.7838L91.4664 35.2247L92.4405 36.0594C92.5812 36.2001 92.5812 36.3368 92.5812 36.4775C92.5812 36.8956 91.8844 36.8956 91.6057 36.8956H78.7985L69.1924 28.9604L61.3952 22.6948V31.3281C61.5359 33.4157 62.3707 34.9459 65.2931 35.9214C65.5718 36.0621 65.7112 36.2015 65.7112 36.4789C65.7112 36.8969 65.0144 36.8969 64.7357 36.8969H47.8898C47.4731 36.8969 46.7763 36.8969 46.7763 36.4789C46.7763 36.2015 47.055 36.0608 47.3324 35.9214C50.6742 34.8093 51.0923 33.1384 51.2303 30.4933V6.40498C51.091 3.89927 50.6729 2.08899 47.3324 0.975495C47.0537 0.975495 46.7763 0.696785 46.7763 0.557428C46.7763 0.00135642 47.4731 0.139362 47.8898 0.139362H75.0372C76.5198 0.133098 77.9889 0.420467 79.3599 0.984888C80.7308 1.54931 81.9764 2.37961 83.0248 3.42788C84.0732 4.47616 84.9036 5.72165 85.4682 7.09252C86.0328 8.46338 86.3204 9.93248 86.3143 11.415C86.3205 12.8977 86.0331 14.3668 85.4686 15.7378C84.9041 17.1087 84.0736 18.3543 83.0252 19.4026C81.9768 20.4509 80.7311 21.2812 79.3601 21.8456C77.9891 22.4099 76.5198 22.6972 75.0372 22.6907H66.2673C66.6853 23.5255 67.6595 23.8056 68.4943 24.2236C68.773 24.225 68.9123 24.3657 69.191 24.3657V24.3657ZM69.191 20.0497H70.3045C73.9237 20.0497 76.9869 16.1504 76.9869 11.1377C76.9869 6.26562 73.9237 2.3677 70.3045 2.3677H61.3938V20.0497H69.191ZM22.5527 2.36907H14.6175V20.0511H23.8069C27.5655 20.0511 30.4892 16.1518 30.4892 11.139C30.4892 6.26697 27.5655 2.36907 23.8069 2.36907H22.5527V2.36907Z" fill="#6F7D94" fill-opacity="0.3"/>
</svg>
