<svg width="255" height="35" viewBox="0 0 255 35" fill="none" xmlns="http://www.w3.org/2000/svg">
<path fill-rule="evenodd" clip-rule="evenodd" d="M237.066 8.68458C236.497 6.21969 235.109 4.02066 233.128 2.44703C231.148 0.873409 228.692 0.0182955 226.162 0.0214955H201.018C198.489 0.0189083 196.034 0.874305 194.054 2.44788C192.074 4.02146 190.686 6.22014 190.117 8.68458H237.066ZM190.119 12.3498H200.533V23.0897C200.533 24.6781 201.83 25.9756 203.421 25.9756H223.763C224.528 25.9741 225.261 25.6696 225.802 25.1287C226.343 24.5878 226.648 23.8546 226.649 23.0897V12.3498H237.066V23.4469C237.066 29.6435 232.037 34.6373 225.872 34.6373H201.313C195.117 34.6373 190.088 29.6435 190.088 23.4469L190.119 12.3498ZM52.3645 0.0214955C57.6857 0.0214955 62.1302 3.72052 63.2978 8.68458H17.8772V0.0214955H52.3645ZM52.0722 34.6373C53.5427 34.6402 54.9993 34.3527 56.3584 33.7913C57.7175 33.23 58.9525 32.4059 59.9924 31.3662C61.0323 30.3266 61.8567 29.0918 62.4184 27.7328C62.98 26.3739 63.2679 24.9174 63.2654 23.4469L63.2978 12.3498H52.8515V23.0897C52.8542 23.4668 52.7824 23.8407 52.6403 24.19C52.4982 24.5393 52.2885 24.8572 52.0233 25.1253C51.758 25.3934 51.4425 25.6065 51.0948 25.7524C50.747 25.8983 50.3739 25.9742 49.9968 25.9756L28.2924 25.9445V12.3498H17.8785V34.6373H52.0722ZM155.696 0.0214955C153.167 0.0179319 150.711 0.872971 148.731 2.4467C146.751 4.02044 145.363 6.21968 144.796 8.68458C144.796 8.68458 188.107 8.58717 188.107 8.68458V0.0214955H155.696ZM155.987 34.6373C149.791 34.6373 144.762 29.6435 144.762 23.4469L144.796 12.3498H155.209V23.0897C155.209 24.6781 156.507 25.9756 158.095 25.9756H188.107V34.6373C188.107 34.7361 155.987 34.6373 155.987 34.6373ZM118.777 8.71706L111.93 0.0214955H100.057L107.031 8.68458L118.777 8.71706ZM128.412 8.71706L135.257 0.0214955H147.132L140.156 8.68458L128.412 8.71706ZM128.77 34.6373V22.765L137.236 12.3173L125.589 12.3498L123.611 14.8812L121.631 12.3498L109.951 12.3173L118.419 22.765V34.6373H128.77ZM76.6314 8.71706L81.563 0.0214955H87.9544C91.9782 0.0214955 95.5135 2.16325 97.4929 5.37521C98.2722 6.86754 99.3424 8.71706 99.3099 8.71706C99.3099 8.68458 76.6314 8.71706 76.6314 8.71706ZM61.8705 34.6373L74.5884 12.3173L85.6517 12.3498L72.9662 34.6373H61.8705ZM103.008 34.6373L99.5372 28.4759H85.879L82.0825 21.7922L95.6758 21.7259L90.5183 12.3173L101.224 12.3498L114.136 34.6373H103.008ZM0.908203 12.3498V8.71706H17.8772V12.3498H0.908203ZM237.066 12.3498V8.71706H254.033V12.3498H237.066Z" fill="#6F7D94" fill-opacity="0.3"/>
</svg>
