<svg width="122" height="35" viewBox="0 0 122 35" fill="none" xmlns="http://www.w3.org/2000/svg">
<path d="M-28.0876 18.8314H-20.7376L-24.3792 7.92306H-24.4802L-28.0876 18.8314ZM-17.3822 0.385746L-8.91536 25.7118C-7.91032 28.8004 -7.19944 29.5162 -5.43449 29.5162H-3.71366V33.9747H-22.1995V29.5152H-20.6827C-19.1628 29.5152 -17.8989 29.3132 -17.8989 28.7622C-17.8989 28.2425 -17.9499 27.6856 -18.1539 26.9237L-19.2099 23.285H-29.5447L-30.1624 25.3127C-30.7164 27.0806 -30.9213 27.8317 -30.9213 28.5426C-30.9213 29.3603 -29.1426 29.5152 -27.764 29.5152H-26.3079V33.9737H-41.2021V29.5152H-39.4774C-37.7046 29.5152 -37.0065 28.7994 -35.9789 25.7108L-27.5199 0.384766L-17.3822 0.385746ZM7.64279 22.1103C7.64279 27.2875 8.80473 30.3712 11.6384 30.3712C14.4908 30.3712 15.6429 27.2865 15.6429 22.1103C15.6429 16.9478 14.4908 13.8601 11.6384 13.8601C8.80473 13.8601 7.64279 16.9478 7.64279 22.1103ZM-0.775024 6.61994C-0.775024 5.18837 -1.12802 4.43728 -2.59684 4.43728H-4.9256V0.385746H7.64279V12.9934C9.51363 10.8656 11.8993 9.49876 14.1682 9.49876C21.7702 9.49876 24.603 15.4368 24.603 22.1103C24.603 28.8014 21.7702 34.7258 14.1682 34.7258C10.9776 34.7258 8.13796 33.6129 6.37105 30.8252L4.90812 33.9786H-0.775024V6.61994ZM36.0624 22.1103C36.0624 27.2875 37.238 30.3712 40.0678 30.3712C42.9084 30.3712 44.0674 27.2865 44.0674 22.1103C44.0674 16.9478 42.9074 13.8601 40.0678 13.8601C37.238 13.8601 36.0624 16.9478 36.0624 22.1103ZM27.6475 6.61994C27.6475 5.18837 27.2906 4.43728 25.8365 4.43728H23.5009V0.385746H36.0614V12.9934C37.942 10.8656 40.3189 9.49876 42.5986 9.49876C50.2006 9.49876 53.0402 15.4368 53.0402 22.1103C53.0402 28.8014 50.2006 34.7258 42.5976 34.7258C39.4079 34.7258 36.5674 33.6129 34.7975 30.8252L33.3238 33.9786H27.6475V6.61994ZM64.4379 22.1123C64.4379 28.0886 65.4998 30.6742 68.5414 30.6742C71.5771 30.6742 72.638 28.0886 72.638 22.1123C72.638 16.1359 71.5771 13.5532 68.5414 13.5532C65.4998 13.5532 64.4379 16.1359 64.4379 22.1123ZM81.6118 22.1123C81.6118 30.2212 76.0855 34.7258 68.5414 34.7258C60.9805 34.7258 55.467 30.2222 55.467 22.1123C55.467 14.0072 60.9805 9.49876 68.5414 9.49876C76.0855 9.49876 81.6118 14.0072 81.6118 22.1123ZM117.733 22.5221V26.4736C117.733 28.8014 117.231 30.1791 115.305 30.1791C114.142 30.1791 113.589 29.3113 113.589 28.2435V14.3141H119.808V10.2577H113.589V0.847574H108.564C108.153 5.04423 106.841 10.2577 101.775 10.2577H93.8743V0.847574H88.8638C88.4539 5.04423 87.1341 10.2577 82.0746 10.2577V14.3122H85.4672V27.0267C85.4672 32.196 88.3539 34.7238 93.5624 34.7238C99.6564 34.7238 102.073 31.996 102.073 27.0267V22.5211H98.0336V26.4727C98.0336 28.8004 97.5218 30.1771 95.6019 30.1771C94.4273 30.1771 93.8743 29.3093 93.8743 28.2415V14.3131H105.186V27.0276C105.186 32.197 108.059 34.7248 113.279 34.7248C119.356 34.7248 121.794 31.997 121.794 27.0276V22.5221H117.734H117.733Z" fill="#6F7D94" fill-opacity="0.3"/>
</svg>
