<svg width="262" height="73" viewBox="0 0 262 73" fill="none" xmlns="http://www.w3.org/2000/svg">
<path d="M136.25 22.5282L145.968 22.1636L137.816 49.0269H155.247L163.399 22.1636L172.895 22.5282L176.765 9.77274H140.121L136.25 22.5282ZM100.156 29.5042C97.7193 42.1031 84.3621 49.6518 69.73 49.6518C55.0978 49.6518 44.6611 42.1031 47.0991 29.5042C49.4856 17.1654 62.9971 9.14844 77.5658 9.14844C92.1345 9.14844 102.544 17.1654 100.156 29.5042ZM64.6167 29.7123C63.7504 34.1899 66.8461 37.2614 72.1266 37.2614C77.4071 37.2614 81.6912 34.1899 82.557 29.7123C83.363 25.5476 80.6023 22.0593 75.0675 22.0593C69.5326 22.0593 65.4228 25.5476 64.6167 29.7123Z" fill="#6F7D94" fill-opacity="0.3"/>
<path d="M94.7384 46.0592C99.7129 48.2977 106.449 49.6517 112.493 49.6517C122.863 49.6517 134.193 45.0187 136.006 35.6477C137.295 28.9836 132.576 25.7556 125.458 24.4021L121.654 23.6735C120.369 23.4133 118.246 23.2046 118.528 21.7468C118.84 20.1331 121.158 19.6642 122.684 19.6642C126.437 19.6642 129.557 20.9655 132.225 22.6319L138.877 12.5839C134.622 10.2416 129.808 9.14784 124.337 9.14784C113.903 9.14784 102.526 14.3541 100.723 23.673C99.5349 29.816 104.626 33.0956 111.242 34.085L114.64 34.6055C116.18 34.8658 118.44 35.0223 118.098 36.7919C117.756 38.5627 114.909 39.1348 113.192 39.1348C109.184 39.1348 105.742 37.5206 103.008 35.5423L102.228 34.9696L94.7384 46.0592ZM210.7 10.7621C207.211 9.72052 203.25 9.14838 199.306 9.14838C185.247 9.14838 172.468 18.3107 170.252 29.7644C168.087 40.9577 177.093 49.6517 190.77 49.6517C193.888 49.6517 200.468 49.1834 203.478 48.0902L206.828 33.4086C203.596 35.6477 200.142 37.0527 196.135 37.0527C190.918 37.0527 187.045 33.721 187.881 29.3998C188.707 25.1313 193.625 21.7474 198.841 21.7474C202.786 21.7474 205.933 23.5692 208.318 25.7034L210.7 10.7621ZM238.609 9.14838C224.041 9.14838 210.529 17.1659 208.142 29.5041C205.705 42.1031 216.141 49.6517 230.774 49.6517C245.406 49.6517 258.763 42.1031 261.2 29.5041C263.587 17.1654 253.177 9.14838 238.609 9.14838ZM236.111 22.0592C241.646 22.0592 244.407 25.5475 243.601 29.7122C242.735 34.1899 238.451 37.2614 233.17 37.2614C227.89 37.2614 224.795 34.1899 225.66 29.7122C226.466 25.5475 230.576 22.0592 236.111 22.0592ZM51.5942 1.95088C47.2429 0.692595 42.3028 0 37.3837 0C19.8478 0 3.91059 11.0761 1.1472 24.921C-1.55274 38.4508 9.67934 48.9608 26.7388 48.9608C30.6271 48.9608 38.8328 48.394 42.5878 47.0722L46.7649 29.3261C42.7341 32.0314 38.4274 33.7307 33.4287 33.7307C26.9222 33.7307 22.0923 29.7031 23.1349 24.4801C24.1652 19.3201 30.2975 15.229 36.804 15.229C41.7231 15.229 45.648 17.4321 48.6238 20.0116L51.5942 1.95088Z" fill="#6F7D94" fill-opacity="0.3"/>
<path d="M89.5212 54.2393L90.1879 64.7691H90.3562C90.7015 63.6931 91.0838 62.5698 91.6204 61.5163L95.2501 54.2393H101.148L102.04 64.7691H102.208C102.516 63.7399 102.861 62.6633 103.333 61.6572L106.877 54.2393H114.882L104.058 71.8832H97.3451L96.7531 62.2885H96.5003C96.2428 63.201 96.0175 64.0905 95.6002 64.9562L92.1496 71.8832H85.6054L81.5439 54.2393H89.5212Z" fill="#6F7D94" fill-opacity="0.3"/>
<path d="M114.32 54.2393H121.735L120.605 60.1828H125.324L126.453 54.2393H133.868L130.514 71.8838H123.1L124.265 65.752H119.547L118.382 71.8838H110.967L114.32 54.2393Z" fill="#6F7D94" fill-opacity="0.3"/>
<path d="M155.581 63.108C154.504 68.7708 148.608 72.1639 142.148 72.1639C135.688 72.1639 131.081 68.7708 132.157 63.108C133.211 57.5619 139.177 53.958 145.608 53.958C152.04 53.9585 156.635 57.5619 155.581 63.108ZM139.891 63.2016C139.509 65.2137 140.876 66.5946 143.207 66.5946C145.538 66.5946 147.429 65.2143 147.811 63.2016C148.167 61.3297 146.949 59.7617 144.505 59.7617C142.062 59.7617 140.247 61.3297 139.891 63.2016ZM157.267 54.2392H164.963L162.685 66.2198H169.145L168.069 71.8837H153.914L157.267 54.2392ZM187.35 65.5654L187.694 65.8225C188.901 66.7119 190.421 67.4373 192.19 67.4373C192.948 67.4373 194.205 67.1797 194.356 66.3844C194.507 65.5891 193.51 65.5192 192.829 65.402L191.329 65.1675C188.408 64.7233 186.161 63.2489 186.685 60.4876C187.481 56.2987 192.504 53.9585 197.11 53.9585C199.526 53.9585 201.651 54.4495 203.53 55.5024L200.593 60.0187C199.415 59.2697 198.038 58.6852 196.381 58.6852C195.707 58.6852 194.684 58.896 194.546 59.6208C194.421 60.2769 195.359 60.3699 195.926 60.4871L197.605 60.8141C200.747 61.4228 202.831 62.8736 202.262 65.8687C201.461 70.0807 196.459 72.1634 191.881 72.1634C189.213 72.1634 186.239 71.5552 184.043 70.5491L187.35 65.5654Z" fill="#6F7D94" fill-opacity="0.3"/>
<path d="M213.788 65.495L213.481 62.3826C213.399 61.6335 213.405 60.8619 213.407 60.1128H213.126L210.699 65.495H213.788ZM207.087 71.8837H198.942L209.654 54.2397H218.164L222.366 71.8837H214.221L213.937 69.6833H208.124L207.087 71.8837Z" fill="#6F7D94" fill-opacity="0.3"/>
<path d="M225.075 54.2393H232.77L230.494 66.2199H236.954L235.877 71.8838H221.722L225.075 54.2393ZM240.66 54.2393H254.9L253.984 59.0595H247.496L247.176 60.7447H253.102L252.23 65.331H246.304L245.975 67.063H252.687L251.771 71.8838H237.307L240.66 54.2393Z" fill="#6F7D94" fill-opacity="0.3"/>
<path d="M2.36523 71.9108H83.9543L83.9489 71.8834H83.8817L82.8487 67.3966H2.36523V71.9108ZM2.36523 65.4995H82.4121L81.3727 60.9847H2.36523V65.4995ZM2.36523 59.0575H80.9032L80.5505 57.4126L79.8278 54.2744H2.36523V59.0575Z" fill="#6F7D94" fill-opacity="0.3"/>
<path d="M172.852 54.2393H187.091L186.175 59.0595H179.687L179.367 60.7447H185.293L184.421 65.331H178.495L178.166 67.063H184.879L183.962 71.8838H169.498L172.852 54.2393Z" fill="#6F7D94" fill-opacity="0.3"/>
</svg>
