<svg width="239" height="57" viewBox="0 0 239 57" fill="none" xmlns="http://www.w3.org/2000/svg">
<path fill-rule="evenodd" clip-rule="evenodd" d="M0.863281 56.7177V30.4619H27.1191V56.7177H0.863281ZM0.863281 27.1796V0.923828H27.1191V27.1796H0.863281Z" fill="#6F7D94" fill-opacity="0.3"/>
<path fill-rule="evenodd" clip-rule="evenodd" d="M36.8007 15.0353H46.1551C49.2724 15.0353 51.0786 16.5127 51.0786 18.9738C51.0786 21.5999 49.2738 23.076 46.1551 23.076H36.8007V15.0353ZM31.5498 26.8521H45.3339C53.0458 26.8521 56.3282 23.7335 56.3282 19.6313C56.3282 16.0216 54.3596 13.5592 50.7485 12.903V12.7379C53.5383 11.753 55.0158 9.9481 55.0158 7.32334C55.0158 2.89235 51.5697 0.758706 46.1538 0.758706H31.5498V26.8521ZM36.8007 4.5335H45.3339C48.2874 4.5335 49.7649 5.51847 49.7649 8.14323C49.7649 10.4406 47.96 11.753 45.3339 11.753H36.8007V4.5335ZM73.3959 0.267578C64.3702 0.267578 58.9556 6.33972 58.9556 13.888C58.9556 21.2725 64.3702 27.5083 73.3959 27.5083C82.4216 27.5083 87.6725 21.2725 87.6725 13.888C87.6725 6.33837 82.4216 0.267578 73.3959 0.267578ZM73.3959 3.87731C79.7955 3.87731 82.4216 8.80078 82.4216 13.8866C82.4216 18.8101 79.7968 23.7322 73.3959 23.7322C66.995 23.7322 64.2065 18.8087 64.2065 13.8866C64.2065 8.80078 66.995 3.87731 73.3959 3.87731Z" fill="#6F7D94" fill-opacity="0.3"/>
<path fill-rule="evenodd" clip-rule="evenodd" d="M97.6821 13.394L87.0166 26.852H93.0874L100.637 16.8414L108.022 26.852H114.421L103.918 13.394L113.765 0.758593H107.856L100.801 9.94799L93.9086 0.758593H87.6728L97.6821 13.394ZM118.523 26.852H138.872V22.9122H123.776V0.758593H118.523V26.852ZM146.258 26.852V0.758593H141.007V26.852H146.258ZM177.437 13.0666H164.637V16.6763H172.514C172.514 20.9422 169.559 23.7321 164.144 23.7321C157.745 23.7321 155.117 18.8086 155.117 13.8865C155.117 8.79932 157.743 3.8772 164.144 3.8772C167.918 3.8772 171.364 5.68207 171.855 9.12809H176.945C176.287 3.21966 170.709 0.266113 164.144 0.266113C155.117 0.266113 149.866 6.33826 149.866 13.8865C149.866 21.271 155.117 27.5069 164.144 27.5069C167.754 27.5069 170.377 26.5219 173.169 23.7321L173.99 26.8507H177.436V13.0666H177.437ZM184 26.852H189.251V15.0352H202.872V26.852H208.121V0.758593H202.872V11.0967H189.251V0.758593H184V26.852ZM211.897 4.69845H221.414V26.852H226.666V4.69845H236.186V0.758593H211.897V4.69845ZM234.872 19.4675C232.904 19.4675 231.262 21.1087 231.262 23.0772C231.262 25.2109 232.904 26.852 234.872 26.852C237.004 26.852 238.646 25.2109 238.646 23.0772C238.646 21.1073 237.004 19.4675 234.872 19.4675ZM234.872 19.9586C236.677 19.9586 238.155 21.4347 238.155 23.0759C238.152 23.9455 237.805 24.7787 237.19 25.3937C236.575 26.0086 235.742 26.3553 234.872 26.3582C233.231 26.3582 231.754 24.8821 231.754 23.0759C231.754 21.4361 233.231 19.9586 234.872 19.9586ZM234.05 23.4047H235.036L236.186 25.3746H236.841L235.527 23.4047C236.185 23.2396 236.677 22.9122 236.677 22.256C236.677 21.4361 236.186 20.9436 235.2 20.9436H233.558V25.3746H234.05V23.4047ZM234.05 22.9122V21.4347H235.036C235.691 21.4347 236.186 21.5998 236.186 22.2546C236.186 22.9108 235.528 22.9108 234.872 22.9108H234.05V22.9122Z" fill="#6F7D94" fill-opacity="0.3"/>
<path fill-rule="evenodd" clip-rule="evenodd" d="M31.3867 56.7177V30.4619H57.6425V56.7177H31.3867Z" fill="#6F7D94" fill-opacity="0.3"/>
<path fill-rule="evenodd" clip-rule="evenodd" d="M63.5492 51.3032H64.6979V43.9173H67.1589C69.4563 43.9173 70.4413 42.6036 70.4413 39.4863C70.4413 35.8766 68.4713 35.7129 67.3226 35.7129H63.5479V51.3032H63.5492ZM64.6992 36.8616H66.9966C68.1453 36.8616 69.1302 37.0253 69.1302 39.65C69.1302 42.1125 68.3103 42.7687 66.9966 42.7687H64.6992V36.8616ZM73.3961 40.3076H72.2475V51.3032H73.3961V44.2447C73.3961 42.4399 74.5448 41.2898 76.186 41.4563V40.1425C75.0373 40.1425 73.8886 40.7974 73.3961 41.7837V40.3076ZM84.2267 46.0496C84.2267 42.7673 84.2267 40.1439 80.7807 40.1439C78.647 40.1439 77.3347 41.6213 77.3347 44.7386V47.362C77.3347 50.6443 79.1395 51.4656 80.7807 51.4656C82.7506 51.4656 84.063 50.4792 84.2267 47.8531H82.9143C82.9143 49.3306 82.2581 50.4792 80.7807 50.4792C78.9758 50.4792 78.647 48.347 78.647 46.8695V46.0483H84.2267V46.0496ZM78.647 45.0673C78.647 42.6049 78.9758 41.1275 80.7807 41.1275C82.5855 41.1275 82.9143 42.6049 82.9143 45.0673H78.647ZM91.9386 48.3497C91.9386 44.7399 87.5077 45.3948 87.5077 42.7687C87.5077 41.785 88.1638 41.1275 88.9851 41.1275C90.2975 41.1275 90.6263 41.9487 90.6263 43.2625H91.7749C91.7749 41.6213 91.1187 40.1439 89.3139 40.1439C87.509 40.1439 86.3603 40.7987 86.3603 42.7673C86.3603 46.3797 90.6263 45.7222 90.6263 48.512C90.6263 49.8258 90.1338 50.4806 88.9851 50.4806C87.5077 50.4806 87.1802 49.4943 87.1802 48.0209H86.0316C86.0316 50.3169 86.8515 51.4669 88.9851 51.4669C90.79 51.4669 91.9386 50.4819 91.9386 48.3497ZM100.472 46.0496C100.472 42.7673 100.472 40.1439 97.1895 40.1439C94.8922 40.1439 93.7435 41.6213 93.7435 44.7386V47.362C93.7435 50.6443 95.3847 51.4656 97.1895 51.4656C99.1595 51.4656 100.308 50.4792 100.472 47.8531H99.3232C99.3232 49.3306 98.667 50.4792 97.1895 50.4792C95.2209 50.4792 94.8922 48.347 94.8922 46.8695V46.0483H100.472V46.0496ZM94.8922 45.0673C94.8922 42.6049 95.2209 41.1275 97.1895 41.1275C98.9944 41.1275 99.3232 42.6049 99.3232 45.0673H94.8922ZM103.918 44.4098C103.918 41.9501 104.903 41.1275 106.051 41.1275C107.364 41.1275 107.856 42.2775 107.856 43.5899V51.3032H109.005V43.5899C109.005 42.1125 108.676 40.1439 106.215 40.1439C105.23 40.1439 104.41 40.7987 103.918 41.6213V40.3076H102.769V51.3032H103.918V44.4098ZM112.124 41.2912V49.1682C112.124 50.482 112.616 51.3032 114.092 51.3032C114.585 51.3032 114.912 51.3032 115.241 51.1368V50.1532H114.421C113.436 50.1532 113.272 49.8258 113.272 48.3483V41.2898H115.241V40.3062H113.272V37.5164L112.124 38.0102V40.3062H110.482V41.2898H112.124V41.2912ZM118.523 51.3032V40.3076H117.376V51.3032H118.523ZM118.688 37.3541V35.7129H117.211V37.3541H118.688ZM122.462 44.4098C122.462 41.9501 123.612 41.1275 124.594 41.1275C125.908 41.1275 126.402 42.2775 126.402 43.5899V51.3032H127.549V43.5899C127.549 42.1125 127.385 40.1439 124.925 40.1439C123.775 40.1439 123.121 40.7987 122.463 41.6213V40.3076H121.316V51.3032H122.463V44.4098H122.462ZM132.966 41.1275C133.95 41.1275 135.098 41.9488 135.098 44.2461C135.098 47.5284 134.935 48.0222 134.771 48.8408C134.607 49.3319 133.95 49.9908 132.966 49.9908C130.831 49.9908 130.831 47.8558 130.831 45.5598C130.83 43.9173 130.83 41.1275 132.966 41.1275ZM135.098 41.6213C134.771 40.635 133.785 40.1439 132.802 40.1439C130.667 40.1439 130.013 41.785 130.013 42.2762C129.685 43.4262 129.685 43.4262 129.685 46.0496C129.685 48.3483 129.849 51.1368 132.637 51.1368C133.624 51.1368 134.609 50.6457 135.1 49.8258C135.1 53.1081 135.264 54.4205 132.968 54.4205C131.818 54.4205 130.996 53.5992 131.163 52.4492H130.013C129.849 53.4355 130.34 55.4041 132.802 55.4041C135.591 55.4041 136.249 53.9266 136.249 51.6306V42.4399V40.3076H135.098V41.6213ZM148.226 47.6908C148.226 49.0045 147.076 50.4806 145.764 50.4806C144.453 50.4806 143.959 49.3306 143.959 48.1846C143.959 45.5585 146.422 45.7222 148.226 45.7222V47.6908ZM148.226 51.3032H149.376V42.9324C149.376 40.1439 147.241 40.1439 146.258 40.1439C144.617 40.1439 143.139 40.9624 142.975 43.0988H144.289C144.289 41.785 145.108 41.1275 146.094 41.1275C147.735 41.1275 148.226 42.1138 148.226 43.7536V44.5749C146.094 44.7386 142.645 44.4085 142.645 48.1846C142.645 50.1532 143.632 51.4669 145.435 51.4669C146.585 51.4669 147.57 50.9731 148.225 49.8258V51.3032H148.226ZM157.581 42.6049V36.8629H160.041C161.191 36.8629 162.339 36.8629 162.339 39.4863C162.339 41.2912 161.845 42.6049 160.041 42.6049H157.581ZM160.368 51.3032C162.667 51.3032 163.98 49.662 163.98 46.8722C163.98 44.9036 163.487 43.5899 161.518 43.0988C163.323 42.6049 163.65 41.2912 163.65 39.3226C163.65 36.6992 162.503 35.7129 160.368 35.7129H156.431V51.3032H160.368ZM157.581 43.7536H160.204C162.339 43.7536 162.667 45.5585 162.667 47.0359C162.667 49.3319 161.68 49.9908 159.712 49.9908H157.579V43.7536H157.581ZM172.514 46.0496C172.514 42.7673 172.514 40.1439 169.231 40.1439C166.933 40.1439 165.785 41.6213 165.785 44.7386V47.362C165.785 50.6443 167.59 51.4656 169.231 51.4656C171.2 51.4656 172.514 50.4792 172.514 47.8531H171.364C171.364 49.3306 170.709 50.4792 169.231 50.4792C167.426 50.4792 166.933 48.347 166.933 46.8695V46.0483H172.514V46.0496ZM166.933 45.0673C166.933 42.6049 167.426 41.1275 169.231 41.1275C171.036 41.1275 171.364 42.6049 171.364 45.0673H166.933ZM175.468 41.2912V49.1682C175.468 50.482 175.96 51.3032 177.601 51.3032C177.928 51.3032 178.256 51.3032 178.584 51.1368V50.1532H177.766C176.78 50.1532 176.616 49.8258 176.616 48.3483V41.2898H178.584V40.3062H176.616V37.5164L175.468 38.0102V40.3062H173.991V41.2898H175.468V41.2912ZM181.047 41.2912V49.1682C181.047 50.482 181.374 51.3032 183.015 51.3032C183.343 51.3032 183.837 51.3032 184.165 51.1368V50.1532H183.179C182.361 50.1532 182.195 49.8258 182.195 48.3483V41.2898H184.164V40.3062H182.195V37.5164L181.045 38.0102V40.3062H179.404V41.2898H181.047V41.2912ZM192.206 46.0496C192.206 42.7673 192.206 40.1439 188.924 40.1439C186.625 40.1439 185.478 41.6213 185.478 44.7386V47.362C185.478 50.6443 187.283 51.4656 188.924 51.4656C190.892 51.4656 192.206 50.4792 192.206 47.8531H191.056C191.056 49.3306 190.401 50.4792 188.924 50.4792C187.119 50.4792 186.625 48.347 186.625 46.8695V46.0483H192.206V46.0496ZM186.625 45.0673C186.625 42.6049 186.953 41.1275 188.924 41.1275C190.729 41.1275 191.056 42.6049 191.056 45.0673H186.625ZM195.652 40.3076H194.502V51.3032H195.652V44.2447C195.652 42.4399 196.802 41.2898 198.442 41.4563V40.1425C197.292 40.1425 196.307 40.7974 195.816 41.7837H195.652V40.3076ZM207.63 49.3319H207.466L204.676 35.7129H203.365L206.811 51.3032H208.288L211.24 37.3541L214.031 51.3032H215.671L219.117 35.7129H217.968L215.016 49.3319H214.852L212.062 35.7129H210.421L207.63 49.3319ZM225.354 47.6908C225.354 49.0045 224.204 50.4806 222.892 50.4806C221.581 50.4806 221.087 49.3306 221.087 48.1846C221.087 45.5585 223.549 45.7222 225.354 45.7222V47.6908ZM225.354 51.3032H226.504V42.9324C226.504 40.1439 224.369 40.1439 223.385 40.1439C221.744 40.1439 220.267 40.9624 220.103 43.0988H221.414C221.414 41.785 222.235 41.1275 223.222 41.1275C224.863 41.1275 225.354 42.1138 225.354 43.7536V44.5749C223.222 44.7386 219.776 44.4085 219.776 48.1846C219.776 50.1532 220.759 51.4669 222.564 51.4669C223.714 51.4669 224.699 50.9731 225.354 49.8258V51.3032ZM229.949 55.4054H231.096L235.2 40.3076H234.049L231.754 49.3319H231.59L229.291 40.3076H227.98L231.096 51.3032L229.949 55.4054Z" fill="#6F7D94" fill-opacity="0.3"/>
</svg>
