<svg width="25" height="25" viewBox="0 0 25 25" fill="none" xmlns="http://www.w3.org/2000/svg">
<path d="M20.832 20.8337H4.16536C3.61283 20.8337 3.08293 20.6142 2.69223 20.2235C2.30152 19.8328 2.08203 19.3029 2.08203 18.7503V6.1597C2.1054 5.62303 2.33517 5.11612 2.72336 4.74481C3.11156 4.3735 3.62818 4.16648 4.16536 4.16699H20.832C21.3846 4.16699 21.9145 4.38649 22.3052 4.77719C22.6959 5.16789 22.9154 5.69779 22.9154 6.25033V18.7503C22.9154 19.3029 22.6959 19.8328 22.3052 20.2235C21.9145 20.6142 21.3846 20.8337 20.832 20.8337ZM4.16536 8.19616V18.7503H20.832V8.19616L12.4987 13.7503L4.16536 8.19616ZM4.9987 6.25033L12.4987 11.2503L19.9987 6.25033H4.9987Z" fill="#6F7D94"/>
</svg>
