<svg width="22" height="16" viewBox="0 0 22 16" fill="none" xmlns="http://www.w3.org/2000/svg">
<path d="M12.5714 6.28571C12.5714 7.11925 12.2402 7.91864 11.6508 8.50804C11.0614 9.09745 10.262 9.42857 9.4285 9.42857C8.59496 9.42857 7.79557 9.09745 7.20617 8.50804C6.61677 7.91864 6.28564 7.11925 6.28564 6.28571C6.28564 5.45217 6.61677 4.65277 7.20617 4.06337C7.79557 3.47397 8.59496 3.14285 9.4285 3.14285C10.262 3.14285 11.0614 3.47397 11.6508 4.06337C12.2402 4.65277 12.5714 5.45217 12.5714 6.28571ZM10.9999 6.28571C10.9999 5.86894 10.8344 5.46924 10.5397 5.17454C10.245 4.87984 9.84527 4.71428 9.4285 4.71428C9.01173 4.71428 8.61203 4.87984 8.31733 5.17454C8.02263 5.46924 7.85707 5.86894 7.85707 6.28571C7.85707 6.70248 8.02263 7.10218 8.31733 7.39688C8.61203 7.69158 9.01173 7.85714 9.4285 7.85714C9.84527 7.85714 10.245 7.69158 10.5397 7.39688C10.8344 7.10218 10.9999 6.70248 10.9999 6.28571Z" fill="white"/>
<path d="M0 1.96429C0 0.88 0.88 0 1.96429 0H16.8929C17.9771 0 18.8571 0.88 18.8571 1.96429V10.6071C18.8571 11.6914 17.9771 12.5714 16.8929 12.5714H1.96429C0.88 12.5714 0 11.6914 0 10.6071V1.96429ZM1.96429 1.57143C1.86009 1.57143 1.76017 1.61282 1.68649 1.68649C1.61282 1.76017 1.57143 1.86009 1.57143 1.96429V3.14286H2.35714C2.56553 3.14286 2.76538 3.06008 2.91273 2.91273C3.06008 2.76538 3.14286 2.56553 3.14286 2.35714V1.57143H1.96429ZM1.57143 10.6071C1.57143 10.824 1.74743 11 1.96429 11H3.14286V10.2143C3.14286 10.0059 3.06008 9.80605 2.91273 9.6587C2.76538 9.51135 2.56553 9.42857 2.35714 9.42857H1.57143V10.6071ZM4.71429 10.2143V11H14.1429V10.2143C14.1429 9.58913 14.3912 8.98958 14.8332 8.54753C15.2753 8.10548 15.8748 7.85714 16.5 7.85714H17.2857V4.71429H16.5C15.8748 4.71429 15.2753 4.46594 14.8332 4.02389C14.3912 3.58184 14.1429 2.9823 14.1429 2.35714V1.57143H4.71429V2.35714C4.71429 2.9823 4.46594 3.58184 4.02389 4.02389C3.58184 4.46594 2.9823 4.71429 2.35714 4.71429H1.57143V7.85714H2.35714C2.9823 7.85714 3.58184 8.10548 4.02389 8.54753C4.46594 8.98958 4.71429 9.58913 4.71429 10.2143ZM15.7143 11H16.8929C16.997 11 17.097 10.9586 17.1707 10.8849C17.2443 10.8113 17.2857 10.7113 17.2857 10.6071V9.42857H16.5C16.2916 9.42857 16.0918 9.51135 15.9444 9.6587C15.7971 9.80605 15.7143 10.0059 15.7143 10.2143V11ZM17.2857 3.14286V1.96429C17.2857 1.86009 17.2443 1.76017 17.1707 1.68649C17.097 1.61282 16.997 1.57143 16.8929 1.57143H15.7143V2.35714C15.7143 2.56553 15.7971 2.76538 15.9444 2.91273C16.0918 3.06008 16.2916 3.14286 16.5 3.14286H17.2857Z" fill="white"/>
<path d="M5.50024 15.7143C5.00244 15.7145 4.51736 15.5571 4.11453 15.2646C3.7117 14.9721 3.4118 14.5597 3.25781 14.0863C3.47624 14.124 3.69938 14.1429 3.92881 14.1429H16.8931C17.8308 14.1429 18.7302 13.7703 19.3932 13.1073C20.0563 12.4442 20.4288 11.5449 20.4288 10.6071V3.27643C20.8886 3.43898 21.2866 3.74013 21.5681 4.13837C21.8495 4.53661 22.0005 5.01234 22.0002 5.5V10.6071C22.0002 11.2778 21.8681 11.9419 21.6115 12.5616C21.3548 13.1812 20.9786 13.7442 20.5044 14.2184C20.0302 14.6927 19.4671 15.0689 18.8475 15.3255C18.2279 15.5822 17.5638 15.7143 16.8931 15.7143H5.50024Z" fill="white"/>
</svg>
