<svg width="22" height="15" viewBox="0 0 22 15" fill="none" xmlns="http://www.w3.org/2000/svg">
<path fill-rule="evenodd" clip-rule="evenodd" d="M7.59804 2.04537C6.85736 2.04537 6.14703 2.33262 5.62329 2.84391C5.09956 3.35521 4.80533 4.04867 4.80533 4.77175C4.80533 5.49483 5.09956 6.1883 5.62329 6.69959C6.14703 7.21089 6.85736 7.49813 7.59804 7.49813C8.33871 7.49813 9.04905 7.21089 9.57278 6.69959C10.0965 6.1883 10.3907 5.49483 10.3907 4.77175C10.3907 4.04867 10.0965 3.35521 9.57278 2.84391C9.04905 2.33262 8.33871 2.04537 7.59804 2.04537ZM2.71079 4.77175C2.71069 3.98093 2.91195 3.20248 3.29647 2.50643C3.68098 1.81038 4.23669 1.21854 4.91362 0.784169C5.59054 0.349792 6.36745 0.0864935 7.17447 0.0179541C7.98148 -0.0505854 8.79329 0.0777842 9.53688 0.391517C10.2805 0.705249 10.9325 1.19451 11.4344 1.81528C11.9362 2.43605 12.2722 3.16888 12.412 3.94784C12.5517 4.7268 12.491 5.52746 12.2352 6.27782C11.9794 7.02818 11.5366 7.7047 10.9465 8.24652C12.0592 8.77352 13.0253 9.55474 13.7628 10.5239C14.5003 11.4931 14.9875 12.6216 15.183 13.8138C15.2046 13.9464 15.1992 14.0819 15.1671 14.2125C15.135 14.3431 15.0768 14.4663 14.996 14.575C14.9151 14.6836 14.8132 14.7757 14.6959 14.8459C14.5786 14.9161 14.4483 14.9631 14.3124 14.9841C14.1765 15.0051 14.0377 14.9998 13.904 14.9685C13.7702 14.9372 13.644 14.8804 13.5327 14.8015C13.4214 14.7226 13.3271 14.623 13.2552 14.5085C13.1833 14.394 13.1352 14.2668 13.1136 14.1341C12.9023 12.8546 12.2312 11.6903 11.2205 10.85C10.2098 10.0096 8.92562 9.54808 7.59804 9.54808C6.27045 9.54808 4.98625 10.0096 3.97555 10.85C2.96486 11.6903 2.29373 12.8546 2.08243 14.1341C2.0608 14.2668 2.01261 14.394 1.94062 14.5085C1.86863 14.6229 1.77425 14.7224 1.66287 14.8013C1.55149 14.8802 1.42529 14.9368 1.29147 14.9681C1.15765 14.9993 1.01884 15.0045 0.882966 14.9834C0.747088 14.9623 0.616801 14.9152 0.499546 14.845C0.382291 14.7747 0.280364 14.6825 0.199584 14.5738C0.118803 14.4651 0.060752 14.3419 0.0287443 14.2112C-0.00326341 14.0806 -0.00860067 13.9451 0.0130372 13.8124C0.208994 12.6207 0.696378 11.4928 1.43387 10.5241C2.17137 9.55542 3.13723 8.77462 4.24958 8.24789C3.76299 7.80218 3.37534 7.26367 3.11065 6.66573C2.84595 6.06778 2.70986 5.42314 2.71079 4.77175ZM15.278 2.72697C15.0002 2.72697 14.7339 2.83468 14.5375 3.02642C14.3411 3.21816 14.2307 3.47821 14.2307 3.74936C14.2307 4.02052 14.3411 4.28057 14.5375 4.4723C14.7339 4.66404 15.0002 4.77175 15.278 4.77175C15.7504 4.77178 16.209 4.92774 16.5792 5.21431C16.9494 5.50088 17.2095 5.90122 17.3172 6.35031C17.425 6.7994 17.374 7.27085 17.1726 7.68809C16.9712 8.10533 16.6313 8.44385 16.208 8.64867C16.0334 8.73343 15.8865 8.86409 15.7839 9.02594C15.6813 9.18778 15.627 9.37438 15.6271 9.56473V10.0446C15.6268 10.2742 15.7057 10.4973 15.8511 10.6778C15.9965 10.8583 16.1999 10.9858 16.4286 11.0397C18.1042 11.4337 19.4475 12.6755 19.9502 14.2732C19.9901 14.4021 20.0556 14.522 20.1431 14.6261C20.2306 14.7302 20.3383 14.8164 20.46 14.8797C20.5817 14.9431 20.715 14.9824 20.8523 14.9953C20.9895 15.0082 21.1281 14.9945 21.2599 14.955C21.3918 14.9155 21.5143 14.851 21.6206 14.7651C21.7268 14.6793 21.8146 14.5738 21.879 14.4547C21.9433 14.3356 21.983 14.2053 21.9956 14.0712C22.0082 13.9371 21.9936 13.8019 21.9526 13.6734C21.6731 12.7881 21.2121 11.9676 20.5976 11.2617C19.983 10.5558 19.2278 9.97939 18.3779 9.56745C18.9238 8.9812 19.2835 8.25276 19.4133 7.47067C19.5432 6.68858 19.4375 5.88652 19.1091 5.16197C18.7808 4.43742 18.2439 3.82158 17.5638 3.3893C16.8837 2.95703 16.0896 2.72693 15.278 2.72697Z" fill="white"/>
</svg>
