<svg width="49" height="24" viewBox="0 0 49 24" fill="none" xmlns="http://www.w3.org/2000/svg">
<path fill-rule="evenodd" clip-rule="evenodd" d="M0 23.3244L3.65892 4.80187H12.1194C15.7781 5.03062 17.6076 6.85982 17.6076 10.0615C17.6076 15.5496 13.2629 18.751 9.37525 18.5223H5.25963L4.3449 23.3244H0ZM6.1741 15.0924L7.31757 8.23204H10.2902C11.891 8.23204 13.0342 8.91802 13.0342 10.29C12.8057 14.1776 10.9762 14.8636 8.91828 15.0924H6.17436H6.1741ZM16.7575 18.5223L20.4162 0H24.7611L23.8463 4.80187H27.9622C31.6211 5.03062 32.9931 6.85982 32.5359 9.14677L30.9352 18.5223H26.3618L27.9625 10.0615C28.191 8.91802 28.191 8.23204 26.5905 8.23204H23.1604L21.1024 18.5223H16.7575ZM30.6422 23.3244L34.3009 4.80187H42.7617C46.4206 5.03062 48.2501 6.85982 48.2501 10.0615C48.2501 15.5496 43.9052 18.751 40.0178 18.5223H35.9016L34.9869 23.3244H30.6422ZM36.8161 15.0924L37.9596 8.23204H40.9325C42.5332 8.23204 43.6764 8.91802 43.6764 10.29C43.4479 14.1776 41.6185 14.8636 39.5605 15.0924H36.8163H36.8161Z" fill="white"/>
</svg>
