<svg width="23" height="11" viewBox="0 0 23 11" fill="none" xmlns="http://www.w3.org/2000/svg">
<path fill-rule="evenodd" clip-rule="evenodd" d="M0 10.6628L1.67268 2.19518H5.54042C7.21299 2.29976 8.04932 3.13598 8.04932 4.59963C8.04932 7.10853 6.06317 8.57207 4.28591 8.4675H2.40445L1.98628 10.6628H0ZM2.8225 6.89951L3.34524 3.76329H4.7042C5.43597 3.76329 5.95859 4.07689 5.95859 4.70408C5.85414 6.48134 5.0178 6.79494 4.07701 6.89951H2.82262H2.8225ZM7.66073 8.4675L9.33329 0H11.3196L10.9014 2.19518H12.783C14.4557 2.29976 15.0829 3.13598 14.8738 4.18146L14.1421 8.4675H12.0513L12.7831 4.59963C12.8876 4.07689 12.8876 3.76329 12.1559 3.76329H10.5878L9.647 8.4675H7.66073ZM14.0082 10.6628L15.6807 2.19518H19.5486C21.2213 2.29976 22.0576 3.13598 22.0576 4.59963C22.0576 7.10853 20.0713 8.57207 18.2942 8.4675H16.4125L15.9943 10.6628H14.0082ZM16.8305 6.89951L17.3533 3.76329H18.7124C19.4441 3.76329 19.9668 4.07689 19.9668 4.70408C19.8623 6.48134 19.026 6.79494 18.0852 6.89951H16.8307H16.8305Z" fill="url(#paint0_linear_3_1125)"/>
<defs>
<linearGradient id="paint0_linear_3_1125" x1="22.2332" y1="0.135251" x2="-2.69492" y2="13.3949" gradientUnits="userSpaceOnUse">
<stop stop-color="#74CFFE"/>
<stop offset="1" stop-color="white"/>
</linearGradient>
</defs>
</svg>
