<svg width="189" height="92" viewBox="0 0 189 92" fill="none" xmlns="http://www.w3.org/2000/svg">
<path fill-rule="evenodd" clip-rule="evenodd" d="M0 91.3639L14.3323 18.8094H47.473C61.8043 19.7054 68.9704 26.8705 68.9704 39.4118C68.9704 60.9093 51.9521 73.4495 36.7238 72.5535H20.6024L17.0194 91.3639H0ZM24.1845 59.1183L28.6636 32.2457H40.3079C46.578 32.2457 51.0561 34.9327 51.0561 40.3068C50.1611 55.5352 42.9949 58.2222 34.9337 59.1183H24.1855H24.1845ZM65.6407 72.5535L79.972 0H96.9914L93.4083 18.8094H109.531C123.863 19.7054 129.237 26.8705 127.446 35.8287L121.176 72.5535H103.262L109.532 39.4118C110.427 34.9327 110.427 32.2457 104.158 32.2457H90.7213L82.6601 72.5535H65.6407ZM120.029 91.3639L134.36 18.8094H167.502C181.834 19.7054 189 26.8705 189 39.4118C189 60.9093 171.981 73.4495 156.753 72.5535H140.63L137.047 91.3639H120.029ZM144.212 59.1183L148.691 32.2457H160.336C166.607 32.2457 171.085 34.9327 171.085 40.3068C170.19 55.5352 163.023 58.2222 154.962 59.1183H144.213H144.212Z" fill="url(#paint0_linear_52_1778)" fill-opacity="0.05"/>
<defs>
<linearGradient id="paint0_linear_52_1778" x1="190.505" y1="1.1589" x2="-23.0914" y2="114.774" gradientUnits="userSpaceOnUse">
<stop stop-color="#15A4EE"/>
<stop offset="1" stop-color="#8D3FD0"/>
</linearGradient>
</defs>
</svg>
