<svg width="49" height="24" viewBox="0 0 49 24" fill="none" xmlns="http://www.w3.org/2000/svg">
<path fill-rule="evenodd" clip-rule="evenodd" d="M0.75 23.4592L4.40892 4.93664H12.8694C16.5281 5.16538 18.3576 6.99458 18.3576 10.1963C18.3576 15.6844 14.0129 18.8858 10.1253 18.6571H6.00963L5.0949 23.4592H0.75ZM6.9241 15.2271L8.06757 8.36681H11.0402C12.641 8.36681 13.7842 9.05279 13.7842 10.4248C13.5557 14.3124 11.7262 14.9984 9.66828 15.2271H6.92436H6.9241ZM17.5075 18.6571L21.1662 0.134766H25.5111L24.5963 4.93664H28.7122C32.3711 5.16538 33.7431 6.99458 33.2859 9.28154L31.6852 18.6571H27.1118L28.7125 10.1963C28.941 9.05279 28.941 8.36681 27.3405 8.36681H23.9104L21.8524 18.6571H17.5075ZM31.3922 23.4592L35.0509 4.93664H43.5117C47.1706 5.16538 49.0001 6.99458 49.0001 10.1963C49.0001 15.6844 44.6552 18.8858 40.7678 18.6571H36.6516L35.7369 23.4592H31.3922ZM37.5661 15.2271L38.7096 8.36681H41.6825C43.2832 8.36681 44.4264 9.05279 44.4264 10.4248C44.1979 14.3124 42.3685 14.9984 40.3105 15.2271H37.5663H37.5661Z" fill="url(#paint0_linear_4_5461)"/>
<defs>
<linearGradient id="paint0_linear_4_5461" x1="49.3842" y1="0.430622" x2="-5.14502" y2="29.4355" gradientUnits="userSpaceOnUse">
<stop stop-color="#15A4EE"/>
<stop offset="1" stop-color="#8D3FD0"/>
</linearGradient>
</defs>
</svg>
