<svg width="12" height="16" viewBox="0 0 12 16" fill="none" xmlns="http://www.w3.org/2000/svg">
<path d="M0.545462 16C0.400797 16 0.262056 15.9298 0.159762 15.8047C0.0574683 15.6797 0 15.5101 0 15.3333V0.666557C1.6228e-05 0.55071 0.0247316 0.436866 0.0717102 0.336248C0.118689 0.235631 0.186309 0.151712 0.267906 0.0927628C0.349502 0.033814 0.442259 0.00186991 0.537033 7.96289e-05C0.631807 -0.00171065 0.725327 0.0267146 0.808375 0.0825533L11.7176 7.41594C11.8031 7.47349 11.8745 7.55804 11.9241 7.66076C11.9738 7.76349 12 7.88062 12 7.99994C12 8.11927 11.9738 8.2364 11.9241 8.33912C11.8745 8.44185 11.8031 8.5264 11.7176 8.58395L0.808375 15.9173C0.727838 15.9715 0.637399 16 0.545462 16Z" fill="#0F1219"/>
</svg>
