<svg width="31" height="26" viewBox="0 0 31 26" fill="none" xmlns="http://www.w3.org/2000/svg">
<mask id="path-1-inside-1_3_2616" fill="white">
<path fill-rule="evenodd" clip-rule="evenodd" d="M0 26V13C0 5.83137 5.83088 0 12.9989 0V4.33336C8.22062 4.33336 4.33299 8.22131 4.33299 13H12.9989V26H0ZM30.3294 0V4.33336C25.5512 4.33336 21.6635 8.22131 21.6635 13H30.3294V26H17.3305V13C17.3305 5.83137 23.1614 0 30.3294 0Z"/>
</mask>
<path d="M0 26H-1V27H0V26ZM12.9989 0H13.9989V-1H12.9989V0ZM12.9989 4.33336V5.33336H13.9989V4.33336H12.9989ZM4.33299 13H3.33299V14H4.33299V13ZM12.9989 13H13.9989V12H12.9989V13ZM12.9989 26V27H13.9989V26H12.9989ZM30.3294 4.33336V5.33336H31.3294V4.33336H30.3294ZM30.3294 0H31.3294V-1H30.3294V0ZM21.6635 13H20.6635V14H21.6635V13ZM30.3294 13H31.3294V12H30.3294V13ZM30.3294 26V27H31.3294V26H30.3294ZM17.3305 26H16.3305V27H17.3305V26ZM-1 13V26H1V13H-1ZM12.9989 -1C5.27852 -1 -1 5.27916 -1 13H1C1 6.38357 6.38324 1 12.9989 1V-1ZM13.9989 4.33336V0H11.9989V4.33336H13.9989ZM5.33299 13C5.33299 8.77351 8.77298 5.33336 12.9989 5.33336V3.33336C7.66825 3.33336 3.33299 7.6691 3.33299 13H5.33299ZM12.9989 12H4.33299V14H12.9989V12ZM13.9989 26V13H11.9989V26H13.9989ZM0 27H12.9989V25H0V27ZM31.3294 4.33336V0H29.3294V4.33336H31.3294ZM22.6635 13C22.6635 8.77351 26.1035 5.33336 30.3294 5.33336V3.33336C24.9988 3.33336 20.6635 7.6691 20.6635 13H22.6635ZM30.3294 12H21.6635V14H30.3294V12ZM31.3294 26V13H29.3294V26H31.3294ZM17.3305 27H30.3294V25H17.3305V27ZM16.3305 13V26H18.3305V13H16.3305ZM30.3294 -1C22.6091 -1 16.3305 5.27916 16.3305 13H18.3305C18.3305 6.38357 23.7138 1 30.3294 1V-1Z" fill="#6F7D94" fill-opacity="0.3" mask="url(#path-1-inside-1_3_2616)"/>
</svg>
