<svg width="45" height="44" viewBox="0 0 45 44" fill="none" xmlns="http://www.w3.org/2000/svg">
<path d="M43.2004 13.7756C41.7004 12.2755 39.2596 12.2756 37.759 13.7759C37.2975 14.2379 34.3509 17.1869 33.9008 17.6374V7.47451C33.9008 6.44686 33.5006 5.48076 32.7739 4.75414L29.1467 1.12683C28.4201 0.400118 27.4539 0 26.4263 0H4.40491C2.28351 0 0.557617 1.72589 0.557617 3.84729V39.9263C0.557617 42.0477 2.28351 43.7736 4.40491 43.7736H30.0535C32.1749 43.7736 33.9008 42.0477 33.9008 39.9263V28.5239L43.2003 19.2165C44.7039 17.713 44.7043 15.2793 43.2004 13.7756ZM26.2063 2.56486C26.4486 2.56486 26.9155 2.52288 27.3331 2.94044L30.9604 6.56775C31.3673 6.97479 31.336 7.42082 31.336 7.69458H26.2063V2.56486ZM31.3359 39.9263C31.3359 40.6334 30.7607 41.2087 30.0535 41.2087H4.40491C3.69778 41.2087 3.12248 40.6334 3.12248 39.9263V3.84729C3.12248 3.14016 3.69778 2.56486 4.40491 2.56486H23.6414V8.97701C23.6414 9.68525 24.2155 10.2594 24.9238 10.2594H31.3359V20.2045C31.3359 20.2045 27.5524 23.9913 27.5523 23.9914L25.7395 25.8042C25.5988 25.9449 25.4926 26.1166 25.4297 26.3055L23.616 31.7464C23.4623 32.2072 23.5823 32.7153 23.9258 33.0587C24.2698 33.4027 24.778 33.522 25.2382 33.3686L30.6791 31.555C30.8679 31.492 31.0396 31.3859 31.1803 31.2451L31.3359 31.0895V39.9263ZM28.4599 26.7111L30.2735 28.5247L29.5807 29.2174L26.8603 30.1242L27.7671 27.4037L28.4599 26.7111ZM32.0868 26.7106L30.2731 24.897C31.2389 23.9305 35.5281 19.6376 36.4378 18.7272L38.2514 20.5408L32.0868 26.7106ZM41.3863 17.4033L40.0643 18.7264L38.2507 16.9128L39.5732 15.5892C40.0735 15.0892 40.8869 15.0892 41.3869 15.5892C41.8868 16.0894 41.8894 16.9001 41.3863 17.4033Z" fill="url(#paint0_linear_4_5590)"/>
<path d="M24.924 12.8243H6.96993C6.26169 12.8243 5.6875 13.3985 5.6875 14.1068C5.6875 14.815 6.26169 15.3892 6.96993 15.3892H24.924C25.6322 15.3892 26.2064 14.815 26.2064 14.1068C26.2064 13.3985 25.6322 12.8243 24.924 12.8243Z" fill="white"/>
<path d="M19.7942 17.954H6.96993C6.26169 17.954 5.6875 18.5282 5.6875 19.2364C5.6875 19.9447 6.26169 20.5188 6.96993 20.5188H19.7942C20.5025 20.5188 21.0767 19.9447 21.0767 19.2364C21.0767 18.5282 20.5025 17.954 19.7942 17.954Z" fill="white"/>
<path d="M19.7942 23.0837H6.96993C6.26169 23.0837 5.6875 23.6579 5.6875 24.3662C5.6875 25.0744 6.26169 25.6486 6.96993 25.6486H19.7942C20.5025 25.6486 21.0767 25.0744 21.0767 24.3662C21.0767 23.6579 20.5025 23.0837 19.7942 23.0837Z" fill="white"/>
<path d="M19.7942 28.2135H6.96993C6.26169 28.2135 5.6875 28.7877 5.6875 29.4959C5.6875 30.2042 6.26169 30.7784 6.96993 30.7784H19.7942C20.5025 30.7784 21.0767 30.2042 21.0767 29.4959C21.0767 28.7877 20.5025 28.2135 19.7942 28.2135Z" fill="white"/>
<path d="M24.9233 36.0791H17.2287C16.5205 36.0791 15.9463 36.6533 15.9463 37.3615C15.9463 38.0698 16.5205 38.644 17.2287 38.644H24.9233C25.6315 38.644 26.2057 38.0698 26.2057 37.3615C26.2057 36.6533 25.6315 36.0791 24.9233 36.0791Z" fill="white"/>
<defs>
<linearGradient id="paint0_linear_4_5590" x1="39.7396" y1="-4.81961e-07" x2="-0.685528" y2="40.2825" gradientUnits="userSpaceOnUse">
<stop stop-color="#1C9AE7"/>
<stop offset="1" stop-color="#6C5AD7"/>
</linearGradient>
</defs>
</svg>
