<svg width="44" height="40" viewBox="0 0 44 40" fill="none" xmlns="http://www.w3.org/2000/svg">
<path d="M42.4754 5.22592C42.4727 5.22592 42.47 5.22558 42.4674 5.22558H30.8465V3.91919C30.8465 1.75819 29.1215 0 27.0014 0H16.7477C14.6275 0 12.9026 1.75819 12.9026 3.91919V5.22558H1.28171C0.568092 5.22558 0 5.82163 0 6.53198V35.2727C0 37.4337 1.72497 39.1919 3.84513 39.1919H39.9039C42.0241 39.1919 43.7491 37.4337 43.7491 35.2727V6.55954C43.7491 6.55784 43.7491 6.55614 43.7491 6.55443C43.7 5.69643 43.1823 5.23069 42.4754 5.22592ZM15.466 3.91919C15.466 3.19897 16.0411 2.61279 16.7477 2.61279H27.0014C27.708 2.61279 28.2831 3.19897 28.2831 3.91919V5.22558H15.466V3.91919ZM40.689 7.83838L36.7087 20.009C36.5341 20.5434 36.0455 20.9023 35.4931 20.9023H28.2831V19.5959C28.2831 18.8744 27.7093 18.2895 27.0014 18.2895H16.7477C16.0397 18.2895 15.466 18.8744 15.466 19.5959V20.9023H8.25602C7.70362 20.9023 7.21497 20.5434 7.0404 20.009L3.06009 7.83838H40.689ZM25.7197 20.9023V23.5151H18.0294V20.9023H25.7197ZM41.1857 35.2727C41.1857 35.9929 40.6106 36.5791 39.9039 36.5791H3.84513C3.13852 36.5791 2.56342 35.9929 2.56342 35.2727V14.5823L4.60849 20.8353C5.13252 22.4384 6.59848 23.5151 8.25602 23.5151H15.466V24.8215C15.466 25.5431 16.0397 26.1279 16.7477 26.1279H27.0014C27.7093 26.1279 28.2831 25.5431 28.2831 24.8215V23.5151H35.4931C37.1506 23.5151 38.6166 22.4384 39.1406 20.8353L41.1857 14.5823V35.2727Z" fill="url(#paint0_linear_4_5615)"/>
<path fill-rule="evenodd" clip-rule="evenodd" d="M12.9026 5.21948V5.22555H1.28171C0.568092 5.22555 0 5.82159 0 6.53195V6.83577L0.0421285 7.00428L0 6.53195L4.60849 20.8353C5.13252 22.4383 6.59848 23.5151 8.25602 23.5151H15.466V24.8215C15.466 25.5431 16.0397 26.1279 16.7477 26.1279H27.0014C27.7093 26.1279 28.2831 25.5431 28.2831 24.8215V23.5151H35.4931C37.1506 23.5151 38.6166 22.4383 39.1406 20.8353L43.7491 6.5544L43.712 6.96984L43.7491 6.83577V6.5595V6.5544C43.7 5.6964 43.1823 5.23065 42.4754 5.22589L42.4714 5.22572L42.4674 5.22555H30.8465V5.21948H28.2831V5.22555H15.466V5.21948H12.9026ZM40.689 7.83834L36.7087 20.0089C36.5341 20.5434 36.0455 20.9023 35.4931 20.9023H28.2831V19.5959C28.2831 18.8743 27.7093 18.2895 27.0014 18.2895H16.7477C16.0397 18.2895 15.466 18.8743 15.466 19.5959V20.9023H8.25602C7.70362 20.9023 7.21497 20.5434 7.0404 20.0089L3.06009 7.83834H40.689ZM25.7197 20.9023V23.5151H18.0294V20.9023H25.7197Z" fill="white"/>
<defs>
<linearGradient id="paint0_linear_4_5615" x1="39.1628" y1="-4.31515e-07" x2="3.17311" y2="40.0356" gradientUnits="userSpaceOnUse">
<stop stop-color="#1C9AE7"/>
<stop offset="1" stop-color="#6C5AD7"/>
</linearGradient>
</defs>
</svg>
