<svg width="44" height="40" viewBox="0 0 44 40" fill="none" xmlns="http://www.w3.org/2000/svg">
<path d="M15.0092 15.168C15.6907 14.4544 16.1093 13.4964 16.1093 12.4439C16.1093 10.244 14.2841 8.4541 12.0409 8.4541C9.79778 8.4541 7.97261 10.244 7.97261 12.4439C7.97261 13.4964 8.39116 14.4544 9.07272 15.168C7.69405 16.0977 6.78809 17.6546 6.78809 19.4154V21.1584C6.78809 21.7576 7.28327 22.2432 7.89425 22.2432H16.1879C16.7989 22.2432 17.2941 21.7576 17.2941 21.1584V19.4154C17.2941 17.6546 16.3878 16.0977 15.0092 15.168ZM10.1849 12.4439C10.1849 11.4404 11.0177 10.6237 12.0409 10.6237C13.0644 10.6237 13.8969 11.4404 13.8969 12.4439C13.8969 13.4476 13.0644 14.264 12.0409 14.264C11.0177 14.264 10.1849 13.4476 10.1849 12.4439ZM15.0817 20.0736H9.00042V19.4154C9.00042 17.7712 10.3644 16.4336 12.0409 16.4336C13.7178 16.4336 15.0817 17.7712 15.0817 19.4154V20.0736Z" fill="white"/>
<path d="M35.6227 9.61554H23.26C22.5516 9.61554 21.9775 10.1896 21.9775 10.898C21.9775 11.606 22.5516 12.1804 23.26 12.1804H35.6227C36.3307 12.1804 36.9052 11.606 36.9052 10.898C36.9052 10.1896 36.3307 9.61554 35.6227 9.61554Z" fill="white"/>
<path d="M35.6227 15.1099H23.26C22.5516 15.1099 21.9775 15.684 21.9775 16.3924C21.9775 17.1004 22.5516 17.6748 23.26 17.6748H35.6227C36.3307 17.6748 36.9052 17.1004 36.9052 16.3924C36.9052 15.684 36.3307 15.1099 35.6227 15.1099Z" fill="white"/>
<path d="M28.7544 20.6044H23.26C22.5516 20.6044 21.9775 21.1785 21.9775 21.8868C21.9775 22.5951 22.5516 23.1692 23.26 23.1692H28.7544C29.4627 23.1692 30.0368 22.5951 30.0368 21.8868C30.0368 21.1785 29.4627 20.6044 28.7544 20.6044Z" fill="white"/>
<path d="M36.3098 0H7.46381C3.39777 0 0 3.29257 0 7.46381V38.3704C0 39.4427 1.25738 40.0609 2.10332 39.3556L9.98859 32.7848H36.3098C40.3748 32.7848 43.7736 29.4939 43.7736 25.321V7.46381C43.7736 3.29458 40.3782 0 36.3098 0V0ZM41.2087 25.321C41.2087 28.0498 38.9855 30.2199 36.3098 30.2199H9.52405C9.22414 30.2199 8.93359 30.3248 8.70316 30.5172L2.56486 35.6322V7.46381C2.56486 4.73564 4.7874 2.56486 7.46381 2.56486H36.3098C38.9822 2.56486 41.2087 4.73063 41.2087 7.46381V25.321Z" fill="url(#paint0_linear_4_5609)"/>
<defs>
<linearGradient id="paint0_linear_4_5609" x1="39.1848" y1="-4.36632e-07" x2="2.7272" y2="40.1033" gradientUnits="userSpaceOnUse">
<stop stop-color="#1C9AE7"/>
<stop offset="1" stop-color="#6C5AD7"/>
</linearGradient>
</defs>
</svg>
