<svg width="25" height="25" viewBox="0 0 25 25" fill="none" xmlns="http://www.w3.org/2000/svg">
<path d="M21.2201 2.08525C20.9371 2.10718 20.6593 2.17788 20.3976 2.29461H20.394C20.1428 2.4007 18.9482 2.93582 17.1321 3.74696L10.624 6.66575C5.95409 8.75932 1.36353 10.821 1.36353 10.821L1.41819 10.7984C1.41819 10.7984 1.10169 10.9092 0.771086 11.1505C0.56684 11.2889 0.391087 11.47 0.25446 11.6828C0.0922435 11.9363 -0.0382352 12.324 0.0102535 12.7249C0.0895987 13.4027 0.502193 13.8092 0.798415 14.0336C1.09816 14.2608 1.38381 14.3669 1.38381 14.3669H1.39086L5.69578 15.9112C5.88885 16.5712 7.00762 20.488 7.27651 21.3902C7.4352 21.9291 7.58948 22.2661 7.78255 22.5234C7.876 22.6548 7.98532 22.7646 8.11668 22.8529C8.18497 22.8952 8.25779 22.9286 8.33356 22.9524L8.28948 22.9411C8.3027 22.9449 8.31328 22.9562 8.32298 22.9599C8.35825 22.9702 8.38205 22.974 8.42701 22.9815C9.1085 23.2012 9.65598 22.7505 9.65598 22.7505L9.68684 22.7243L12.2285 20.2599L16.4885 23.7401L16.5855 23.7842C17.4732 24.1991 18.3725 23.9682 18.8477 23.5607C19.3264 23.1505 19.5124 22.6257 19.5124 22.6257L19.5433 22.5412L22.8352 4.58251C22.9287 4.13939 22.9525 3.72443 22.8493 3.32168C22.7429 2.91407 22.4974 2.56349 22.1608 2.33873C21.8782 2.15577 21.5504 2.06746 21.2201 2.08525ZM21.1311 4.00983C21.1275 4.06898 21.1381 4.06241 21.1134 4.176V4.18633L17.8523 21.9582C17.8382 21.9835 17.8144 22.0389 17.7492 22.0943C17.6804 22.1525 17.6258 22.1891 17.3392 22.068L12.1289 17.8142L8.98155 20.8692L9.64276 16.3722L18.1556 7.92283C18.5065 7.57547 18.3892 7.50224 18.3892 7.50224C18.4139 7.07602 17.8594 7.37738 17.8594 7.37738L7.12487 14.4589L7.12134 14.4401L1.97625 12.5953V12.5916L1.96303 12.5888C1.97205 12.5856 1.98088 12.5818 1.98947 12.5775L2.01769 12.5625L2.04502 12.5522C2.04502 12.5522 6.6391 10.4905 11.309 8.39694C13.647 7.34827 16.0027 6.2921 17.8144 5.47721C19.6261 4.66701 20.9653 4.07273 21.0411 4.04081C21.1134 4.01077 21.079 4.01077 21.1311 4.01077V4.00983Z" fill="#6F7D94"/>
</svg>
