<svg width="25" height="25" viewBox="0 0 25 25" fill="none" xmlns="http://www.w3.org/2000/svg">
<path d="M24.1576 6.73212C24.0985 6.58937 23.9984 6.46737 23.8699 6.38153C23.7414 6.2957 23.5904 6.24989 23.4359 6.24989H20.4649C20.108 5.62867 19.613 5.09789 19.0181 4.69863C18.4232 4.29937 17.7445 4.04234 17.0344 3.94742C16.3242 3.8525 15.6018 3.92224 14.923 4.15124C14.2441 4.38025 13.6271 4.76238 13.1196 5.26806C12.6759 5.7008 12.3232 6.21791 12.0824 6.78897C11.8415 7.36002 11.7173 7.97348 11.7171 8.59325L11.7166 9.19091C7.74241 8.15546 4.49143 4.95048 4.45705 4.9161C4.35624 4.81529 4.22976 4.74398 4.09132 4.70991C3.95288 4.67583 3.80775 4.68029 3.67166 4.72281C3.53558 4.76532 3.41372 4.84426 3.31929 4.95108C3.22486 5.0579 3.16146 5.18852 3.13596 5.3288C2.27903 10.0422 3.69485 13.1973 5.03342 15.014C5.7069 15.9301 6.52207 16.733 7.44827 17.3925C5.9593 19.077 3.65549 19.9619 3.63039 19.9714C3.52021 20.0127 3.42078 20.0784 3.33954 20.1635C3.2583 20.2487 3.19734 20.3511 3.16122 20.4631C3.1251 20.5751 3.11474 20.6938 3.13093 20.8103C3.14712 20.9269 3.18943 21.0383 3.25471 21.1362C3.32747 21.2456 3.62073 21.6297 4.33655 21.9876C5.22356 22.4312 6.3925 22.6561 7.81086 22.6561C14.6993 22.6561 20.4544 17.3536 21.0426 10.5293L23.9883 7.58358C24.0976 7.47431 24.172 7.3351 24.2021 7.18354C24.2323 7.03197 24.2168 6.87488 24.1576 6.73212ZM19.7328 9.62938C19.5984 9.76374 19.5177 9.94247 19.5056 10.1321C19.114 16.2788 13.9771 21.0936 7.81086 21.0936C6.77942 21.0936 6.04856 20.9569 5.54299 20.7929C6.6677 20.1824 8.23459 19.1321 9.24221 17.6208C9.30323 17.5287 9.34408 17.4248 9.36208 17.3158C9.38008 17.2068 9.37483 17.0952 9.34666 16.9884C9.31849 16.8816 9.26805 16.782 9.19865 16.6961C9.12925 16.6101 9.04246 16.5398 8.94397 16.4898C8.92951 16.4825 7.48528 15.7352 6.24797 14.0278C4.84065 12.0856 4.24895 9.73524 4.48205 7.02567C6.02307 8.29071 8.97717 10.3614 12.3686 10.9267C12.4804 10.9454 12.595 10.9395 12.7043 10.9094C12.8137 10.8793 12.9152 10.8257 13.0017 10.7525C13.0883 10.6792 13.1578 10.588 13.2056 10.4851C13.2534 10.3822 13.2781 10.2702 13.2782 10.1568L13.2796 8.59462V8.59383C13.2879 7.76067 13.6252 6.96456 14.2181 6.37914C14.811 5.79373 15.6113 5.4665 16.4446 5.46884C17.0458 5.47715 17.6319 5.65838 18.133 5.99087C18.634 6.32336 19.0287 6.79305 19.2699 7.34384C19.3308 7.48307 19.4309 7.60156 19.558 7.68478C19.6851 7.768 19.8337 7.81235 19.9857 7.81239H21.5497L19.7328 9.62938Z" fill="#6F7D94"/>
</svg>
