<svg width="25" height="25" viewBox="0 0 25 25" fill="none" xmlns="http://www.w3.org/2000/svg">
<path d="M5.94756 2.08301C4.92359 2.087 3.94269 2.49554 3.21863 3.2196C2.49456 3.94367 2.08602 4.92456 2.08203 5.94854V19.0508C2.08602 20.0748 2.49456 21.0557 3.21863 21.7797C3.94269 22.5038 4.92359 22.9123 5.94756 22.9163H19.0498C20.0738 22.9123 21.0547 22.5038 21.7788 21.7797C22.5028 21.0557 22.9114 20.0748 22.9154 19.0508V5.94854C22.9114 4.92456 22.5028 3.94367 21.7788 3.2196C21.0547 2.49554 20.0738 2.087 19.0498 2.08301H5.94756ZM5.94756 3.97695H19.0498C20.1483 3.97695 21.0214 4.85005 21.0214 5.94854V19.0508C21.0214 20.1493 20.1483 21.0224 19.0498 21.0224H5.94756C5.68819 21.024 5.43108 20.9742 5.19114 20.8757C4.95119 20.7771 4.7332 20.632 4.54979 20.4486C4.36639 20.2652 4.22122 20.0472 4.12272 19.8072C4.02422 19.5673 3.97434 19.3102 3.97597 19.0508V5.94854C3.97597 4.85005 4.84908 3.97695 5.94756 3.97695ZM12.2326 8.9296C11.5366 8.92297 10.9447 8.9296 10.6123 9.09248C10.3898 9.20043 10.2203 9.4438 10.3235 9.45517C10.4532 9.47411 10.7449 9.53661 10.9012 9.74778C11.1 10.0177 11.0934 10.6285 11.0934 10.6285C11.0934 10.6285 11.2042 12.3074 10.8226 12.5186C10.5603 12.6626 10.2014 12.3699 9.42483 11.0347C9.029 10.3472 8.72976 9.58869 8.72976 9.58869C8.72976 9.58869 8.67294 9.44759 8.57067 9.37373C8.44472 9.28187 8.27048 9.25157 8.27048 9.25157L6.41726 9.26293C6.41726 9.26293 6.1398 9.27429 6.04037 9.39267C5.94756 9.50346 6.03279 9.72126 6.03279 9.72126C6.03279 9.72126 7.4826 13.1133 9.12465 14.8226C10.6303 16.3917 12.3396 16.2876 12.3396 16.2876H13.1161C13.1161 16.2876 13.3491 16.262 13.4675 16.136C13.5792 16.0177 13.5754 15.7951 13.5754 15.7951C13.5754 15.7951 13.5603 14.7563 14.0413 14.601C14.5186 14.4523 15.1246 15.6067 15.7724 16.0508C16.2648 16.387 16.6379 16.3131 16.6379 16.3131L18.3699 16.2876C18.3699 16.2876 19.2724 16.2317 18.8434 15.5177C18.8103 15.4627 18.5953 14.993 17.5603 14.0309C16.4722 13.0252 16.6171 13.1881 17.9258 11.4457C18.7212 10.3841 19.0394 9.73642 18.939 9.45517C18.8443 9.19286 18.2591 9.26293 18.2591 9.26293L16.3093 9.27429C16.3093 9.27429 16.1654 9.25536 16.0584 9.3188C15.9848 9.37345 15.9262 9.44575 15.8879 9.52903C15.8879 9.52903 15.5773 10.3501 15.1663 11.0499C14.3008 12.5215 13.9495 12.6029 13.8093 12.511C13.4798 12.2961 13.5612 11.6521 13.5612 11.1976C13.5612 9.76577 13.779 9.17392 13.1398 9.01956C12.9286 8.96748 12.7733 8.93433 12.2335 8.9296H12.2326Z" fill="#6F7D94"/>
</svg>
