<svg width="25" height="25" viewBox="0 0 25 25" fill="none" xmlns="http://www.w3.org/2000/svg">
<path d="M17.2904 14.5837C17.082 14.4795 15.7279 13.8545 15.5195 13.7503C15.3112 13.6462 15.1029 13.6462 14.8945 13.8545C14.6862 14.0628 14.2695 14.6878 14.0612 14.8962C13.957 15.1045 13.7487 15.1045 13.5404 15.0003C12.8112 14.6878 12.082 14.2712 11.457 13.7503C10.9362 13.2295 10.4154 12.6045 9.9987 11.9795C9.89453 11.7712 9.9987 11.5628 10.1029 11.4587C10.207 11.3545 10.3112 11.1462 10.5195 11.042C10.6237 10.9378 10.7279 10.7295 10.7279 10.6253C10.832 10.5212 10.832 10.3128 10.7279 10.2087C10.6237 10.1045 10.1029 8.8545 9.89453 8.33366C9.79037 7.60449 9.58203 7.6045 9.3737 7.6045H8.85287C8.64453 7.6045 8.33203 7.81283 8.22787 7.91699C7.60287 8.542 7.29037 9.27116 7.29037 10.1045C7.39453 11.042 7.70703 11.9795 8.33203 12.8128C9.47787 14.4795 10.9362 15.8337 12.707 16.667C13.2279 16.8753 13.6445 17.0837 14.1654 17.1878C14.6862 17.3962 15.207 17.3962 15.832 17.292C16.5612 17.1878 17.1862 16.667 17.6029 16.042C17.8112 15.6253 17.8112 15.2087 17.707 14.792L17.2904 14.5837ZM19.8945 5.10449C15.832 1.04199 9.26953 1.04199 5.20703 5.10449C1.8737 8.43783 1.2487 13.542 3.54036 17.6045L2.08203 22.917L7.60287 21.4587C9.16537 22.292 10.832 22.7087 12.4987 22.7087C18.2279 22.7087 22.8112 18.1253 22.8112 12.3962C22.9154 9.68783 21.7695 7.08366 19.8945 5.10449ZM17.082 19.6878C15.7279 20.5212 14.1654 21.042 12.4987 21.042C10.9362 21.042 9.47787 20.6253 8.1237 19.8962L7.8112 19.6878L4.58203 20.5212L5.41536 17.3962L5.20703 17.0837C2.70703 12.917 3.95703 7.70866 8.01953 5.10449C12.082 2.50033 17.2904 3.85449 19.7904 7.81283C22.2904 11.8753 21.1445 17.1878 17.082 19.6878Z" fill="#6F7D94"/>
</svg>
