<svg width="40" height="40" viewBox="0 0 40 40" fill="none" xmlns="http://www.w3.org/2000/svg">
<path d="M38.5394 2.89062H1.46057C0.655213 2.89062 0 3.54584 0 4.3512V35.7361C0 36.5414 0.655213 37.1967 1.46057 37.1967H38.5394C39.3448 37.1967 40 36.5414 40 35.7361V4.3512C40 3.54584 39.3448 2.89062 38.5394 2.89062ZM37.6562 5.23438V6.98456L23.9551 7.01782C23.5892 7.01874 23.2401 7.15668 22.9718 7.40662L21.0443 9.20563H2.34375V5.23438H37.6562ZM2.34375 34.8529V11.5491H21.3986C21.7661 11.5491 22.1164 11.4111 22.3849 11.1603L24.3134 9.36066L37.6566 9.328V34.8529H2.34375Z" fill="white"/>
<path d="M7.59186 7.47704C7.59888 7.51427 7.60834 7.55181 7.61993 7.58873C7.63092 7.62444 7.64435 7.66136 7.65839 7.69646C7.67303 7.73155 7.68951 7.76665 7.70752 7.80022C7.72552 7.83379 7.74506 7.86675 7.76611 7.89879C7.78717 7.93083 7.81067 7.96196 7.83478 7.99095C7.85919 8.02056 7.88483 8.04955 7.91229 8.07701C7.93884 8.10417 7.96753 8.13011 7.99744 8.15422C8.02704 8.17833 8.05817 8.20122 8.09021 8.22228C8.12164 8.24333 8.15521 8.26348 8.18878 8.28148C8.22235 8.29949 8.25745 8.31597 8.29254 8.33C8.32764 8.34496 8.36365 8.35808 8.40057 8.36907C8.4372 8.38005 8.47473 8.38951 8.51135 8.39714C8.54889 8.40508 8.58734 8.41057 8.62549 8.41423C8.66364 8.4182 8.7027 8.41973 8.74023 8.41973C8.77838 8.41973 8.81744 8.4182 8.8559 8.41423C8.89343 8.41057 8.93158 8.40508 8.96912 8.39714C9.00665 8.38951 9.04419 8.38005 9.08081 8.36907C9.11682 8.35808 9.15375 8.34496 9.18854 8.33C9.22394 8.31597 9.25903 8.29949 9.2926 8.28148C9.32617 8.26348 9.35913 8.24333 9.39118 8.22228C9.42291 8.20122 9.45435 8.17833 9.48334 8.15422C9.51386 8.13011 9.54193 8.10417 9.56909 8.07701C9.59656 8.04955 9.6225 8.02056 9.64661 7.99095C9.67072 7.96196 9.6933 7.93083 9.71527 7.89879C9.73572 7.86675 9.75586 7.83379 9.77387 7.80022C9.79187 7.76665 9.80835 7.73155 9.82239 7.69646C9.83704 7.66136 9.85046 7.62444 9.86145 7.58873C9.87244 7.55181 9.88159 7.51427 9.88953 7.47704C9.89746 7.4395 9.90265 7.40105 9.90662 7.36351C9.91058 7.32536 9.91211 7.2863 9.91211 7.24815C9.91211 7.2097 9.91058 7.17156 9.90662 7.1331C9.90265 7.09496 9.89746 7.0565 9.88953 7.01897C9.88159 6.98174 9.87213 6.9442 9.86145 6.90819C9.85046 6.87157 9.83704 6.83556 9.82239 6.80046C9.80835 6.76445 9.79187 6.72997 9.77387 6.6964C9.75586 6.66283 9.73572 6.62926 9.71527 6.59813C9.6933 6.56609 9.67072 6.53465 9.64661 6.50505C9.62219 6.47545 9.59656 6.44646 9.56909 6.41991C9.54193 6.39244 9.51386 6.36681 9.48334 6.3427C9.45435 6.31828 9.42291 6.29478 9.39118 6.27373C9.35913 6.25267 9.32617 6.23314 9.2926 6.21513C9.25903 6.19713 9.22394 6.18095 9.18854 6.166C9.15375 6.15196 9.11682 6.13853 9.08081 6.12785C9.04419 6.11595 9.00665 6.1068 8.96912 6.09947C8.93158 6.09184 8.89343 6.08635 8.8559 6.08238C8.7793 6.07475 8.70209 6.07475 8.62549 6.08238C8.58734 6.08635 8.54889 6.09184 8.51135 6.09947C8.47473 6.1068 8.4372 6.11595 8.40057 6.12785C8.36365 6.13853 8.32764 6.15196 8.29254 6.166C8.25745 6.18095 8.22235 6.19713 8.18878 6.21513C8.15521 6.23314 8.12164 6.25267 8.09021 6.27373C8.05817 6.29478 8.02704 6.31828 7.99744 6.3427C7.96753 6.36681 7.93884 6.39244 7.91229 6.41991C7.88483 6.44646 7.85919 6.47545 7.83478 6.50505C7.81067 6.53465 7.78717 6.56609 7.76611 6.59813C7.74506 6.62926 7.72552 6.66283 7.70752 6.6964C7.68951 6.72997 7.67334 6.76445 7.65839 6.80046C7.64435 6.83556 7.63092 6.87157 7.61993 6.90819C7.60834 6.9442 7.59888 6.98174 7.59186 7.01897C7.58392 7.0565 7.57874 7.09496 7.57477 7.1331C7.5708 7.17156 7.56836 7.2097 7.56836 7.24815C7.56836 7.2863 7.5708 7.32536 7.57477 7.36351C7.57874 7.40135 7.58423 7.4395 7.59186 7.47704Z" fill="white"/>
<path d="M4.24762 8.15422C4.27753 8.17864 4.30865 8.20122 4.3407 8.22228C4.37183 8.24333 4.4057 8.26378 4.43927 8.28179C4.47284 8.29949 4.50793 8.31597 4.54303 8.33C4.57812 8.34496 4.61414 8.35808 4.65076 8.36907C4.68768 8.38005 4.7243 8.38951 4.76184 8.39714C4.79938 8.40508 4.83752 8.41057 4.87598 8.41454C4.91412 8.4182 4.95227 8.42003 4.99072 8.42003C5.02887 8.42003 5.06793 8.4182 5.10638 8.41454C5.14392 8.41057 5.18207 8.40508 5.2196 8.39714C5.25714 8.38951 5.29468 8.38005 5.3313 8.36907C5.36731 8.35808 5.40393 8.34496 5.43903 8.33C5.47412 8.31597 5.50952 8.29949 5.54309 8.28179C5.57666 8.26378 5.60962 8.24333 5.64166 8.22228C5.6734 8.20122 5.70483 8.17864 5.73382 8.15422C5.76343 8.13011 5.79242 8.10417 5.81958 8.07701C5.84705 8.04955 5.87268 8.02086 5.89709 7.99095C5.9212 7.96227 5.94379 7.93083 5.96484 7.89879C5.9859 7.86675 6.00635 7.83409 6.02435 7.80052C6.04236 7.76695 6.05853 7.73155 6.07288 7.69646C6.08752 7.66136 6.10095 7.62474 6.11194 7.58873C6.12262 7.55211 6.13208 7.51457 6.14001 7.47704C6.14764 7.4395 6.15314 7.40135 6.1571 7.36382C6.16107 7.32536 6.1626 7.2863 6.1626 7.24815C6.1626 7.2097 6.16107 7.17156 6.1571 7.1331C6.15314 7.09496 6.14764 7.05681 6.14001 7.01927C6.13208 6.98174 6.12262 6.94512 6.11194 6.90819C6.10095 6.87157 6.08752 6.83556 6.07288 6.80046C6.05853 6.76445 6.04236 6.73027 6.02435 6.6967C6.00635 6.66283 5.9859 6.62926 5.96484 6.59813C5.94379 6.56609 5.9212 6.53496 5.89709 6.50505C5.87268 6.47545 5.84705 6.44646 5.81958 6.41991C5.79242 6.39275 5.76343 6.36681 5.73382 6.34178C5.70483 6.31859 5.6734 6.29509 5.64166 6.27403C5.60962 6.25267 5.57666 6.23314 5.54309 6.21544C5.50952 6.19743 5.47412 6.18095 5.43903 6.166C5.40393 6.15196 5.36731 6.13884 5.3313 6.12785C5.29468 6.11626 5.25714 6.1068 5.2196 6.09978C5.18207 6.09184 5.14392 6.08635 5.10638 6.08238C5.02978 6.07475 4.95227 6.07475 4.87598 6.08238C4.83752 6.08635 4.79938 6.09184 4.76184 6.09978C4.7243 6.1068 4.68768 6.11626 4.65076 6.12785C4.61414 6.13884 4.57812 6.15196 4.54303 6.166C4.50793 6.18095 4.47284 6.19743 4.43927 6.21544C4.4057 6.23314 4.37213 6.25267 4.3407 6.27403C4.30865 6.29509 4.27753 6.31859 4.24762 6.34178C4.21802 6.36681 4.18903 6.39275 4.16248 6.41991C4.13531 6.44646 4.10937 6.47545 4.08527 6.50505C4.06116 6.53496 4.03766 6.56609 4.0166 6.59813C3.99554 6.62926 3.97601 6.66283 3.95801 6.6967C3.94 6.73027 3.92352 6.76445 3.90857 6.80046C3.89453 6.83556 3.88141 6.87157 3.87042 6.90819C3.85883 6.94512 3.84937 6.98174 3.84235 7.01927C3.83441 7.05681 3.82922 7.09496 3.82526 7.1331C3.82129 7.17156 3.81885 7.2097 3.81885 7.24815C3.81885 7.55669 3.94397 7.8582 4.16248 8.07701C4.18903 8.10417 4.21802 8.13011 4.24762 8.15422Z" fill="white"/>
<path d="M11.4205 7.47704C11.4275 7.51427 11.4366 7.55181 11.4485 7.58873C11.4595 7.62444 11.4727 7.66136 11.4867 7.69646C11.5016 7.73155 11.5178 7.76665 11.5358 7.80022C11.5538 7.83379 11.5734 7.86675 11.5944 7.89879C11.6158 7.93083 11.639 7.96196 11.6634 7.99095C11.6875 8.02056 11.7134 8.04955 11.7406 8.07701C11.7672 8.10417 11.7961 8.13011 11.8257 8.15422C11.8557 8.17833 11.8868 8.20122 11.9188 8.22228C11.95 8.24333 11.9835 8.26348 12.0171 8.28148C12.051 8.29949 12.0858 8.31597 12.1212 8.33C12.1562 8.34496 12.1923 8.35808 12.2289 8.36907C12.2658 8.38005 12.303 8.38951 12.3397 8.39714C12.3772 8.40508 12.4156 8.41057 12.4538 8.41423C12.4922 8.4182 12.5313 8.41973 12.5688 8.41973C12.607 8.41973 12.6461 8.4182 12.6842 8.41423C12.7227 8.41057 12.7602 8.40508 12.7983 8.39714C12.8353 8.38951 12.8725 8.38005 12.9094 8.36907C12.946 8.35808 12.9821 8.34496 13.0172 8.33C13.0522 8.31597 13.0873 8.29949 13.1209 8.28148C13.1548 8.26348 13.188 8.24333 13.2195 8.22228C13.2515 8.20122 13.2827 8.17833 13.3126 8.15422C13.3422 8.13011 13.3712 8.10417 13.3977 8.07701C13.4249 8.04955 13.4508 8.02056 13.4749 7.99095C13.4993 7.96196 13.5219 7.93083 13.5436 7.89879C13.564 7.86675 13.5845 7.83379 13.6022 7.80022C13.6202 7.76665 13.6367 7.73155 13.6507 7.69646C13.6656 7.66136 13.6788 7.62444 13.6898 7.58873C13.7007 7.55181 13.7099 7.51427 13.7178 7.47704C13.7258 7.4395 13.7313 7.40105 13.7349 7.36351C13.7389 7.32536 13.7404 7.2863 13.7404 7.24815C13.7404 7.2097 13.7389 7.17156 13.7349 7.1331C13.7313 7.09496 13.7258 7.0565 13.7178 7.01897C13.7099 6.98174 13.7007 6.94481 13.6898 6.90819C13.6788 6.87157 13.6656 6.83556 13.6507 6.80046C13.6367 6.76537 13.6202 6.72997 13.6022 6.6964C13.5845 6.66283 13.564 6.62926 13.5436 6.59813C13.5219 6.56609 13.4993 6.53465 13.4749 6.50505C13.4508 6.47545 13.4249 6.44646 13.3977 6.41991C13.3712 6.39244 13.3422 6.36681 13.3126 6.3427C13.2827 6.31828 13.2515 6.29478 13.2195 6.27373C13.1884 6.25267 13.1548 6.23314 13.1209 6.21513C13.0873 6.19713 13.0522 6.18095 13.0172 6.166C12.9821 6.15196 12.946 6.13853 12.9094 6.12785C12.8725 6.11687 12.8353 6.1068 12.7983 6.09947C12.7602 6.09184 12.7227 6.08635 12.6842 6.08238C12.6079 6.07475 12.5304 6.07475 12.4538 6.08238C12.4156 6.08635 12.3775 6.09184 12.3397 6.09947C12.303 6.1068 12.2658 6.11687 12.2289 6.12785C12.1923 6.13853 12.1562 6.15196 12.1212 6.166C12.0858 6.18095 12.051 6.19713 12.0171 6.21513C11.9835 6.23314 11.95 6.25267 11.9188 6.27373C11.8868 6.29478 11.8553 6.31828 11.8257 6.3427C11.7961 6.36681 11.7672 6.39244 11.7406 6.41991C11.7131 6.44646 11.6875 6.47545 11.6634 6.50505C11.639 6.53465 11.6158 6.56609 11.5944 6.59813C11.5734 6.62926 11.5538 6.66283 11.5358 6.6964C11.5181 6.72997 11.5016 6.76537 11.4867 6.80046C11.4727 6.83556 11.4592 6.87157 11.4485 6.90819C11.4366 6.94481 11.4275 6.98174 11.4205 7.01897C11.4125 7.0565 11.407 7.09496 11.4031 7.1331C11.3991 7.17156 11.397 7.2097 11.397 7.24815C11.397 7.2863 11.3991 7.32536 11.4031 7.36351C11.407 7.40135 11.4125 7.4395 11.4205 7.47704Z" fill="white"/>
<path d="M15.1141 17.599C14.67 17.1284 13.9285 17.1064 13.4576 17.5504L8.51801 22.2077C8.27386 22.4384 8.13379 22.7637 8.13379 23.0997C8.13409 23.4357 8.27448 23.7608 8.51892 23.9912L13.4576 28.6478C13.684 28.8612 13.9727 28.967 14.2611 28.967C14.5727 28.967 14.8834 28.8435 15.1141 28.599C15.5581 28.1284 15.5361 27.3865 15.0652 26.9425L10.989 23.0991L15.0652 19.2557C15.5364 18.8117 15.5581 18.0698 15.1141 17.599Z" fill="white"/>
<path d="M22.5189 17.3324C21.9274 17.069 21.235 17.3348 20.9716 17.9263L16.7892 27.3184C16.5258 27.9098 16.7916 28.6022 17.3831 28.8656C17.5378 28.9346 17.6998 28.9672 17.8591 28.9672C18.3077 28.9672 18.7359 28.7081 18.9303 28.2717L23.1127 18.8796C23.3761 18.2882 23.11 17.5958 22.5189 17.3324Z" fill="white"/>
<path d="M26.5416 17.5504C26.0707 17.1064 25.3291 17.1284 24.8851 17.599C24.4411 18.0698 24.4631 18.8117 24.9339 19.2554L29.0102 23.0991L24.9339 26.9425C24.4631 27.3865 24.4411 28.1281 24.8851 28.599C25.1158 28.8435 25.4265 28.967 25.7381 28.967C26.0262 28.967 26.3152 28.8612 26.5416 28.6478L31.4803 23.9912C31.7247 23.7608 31.8651 23.4357 31.8654 23.0997C31.8654 22.7634 31.7253 22.4384 31.4803 22.2071L26.5416 17.5504Z" fill="white"/>
</svg>
