<svg width="41" height="41" viewBox="0 0 41 41" fill="none" xmlns="http://www.w3.org/2000/svg">
<path d="M12.2487 3.41675H27.6237C29.5029 3.41675 31.0404 4.95425 31.0404 6.83341V34.1667C31.0404 36.0459 29.5029 37.5834 27.6237 37.5834H12.2487C10.3695 37.5834 8.83203 36.0459 8.83203 34.1667V32.4584C8.83203 32.0053 9.01202 31.5708 9.33239 31.2504C9.65277 30.9301 10.0873 30.7501 10.5404 30.7501C10.9934 30.7501 11.428 30.9301 11.7483 31.2504C12.0687 31.5708 12.2487 32.0053 12.2487 32.4584V34.1667H27.6237V6.83341H12.2487V8.54175C12.2487 8.99483 12.0687 9.42935 11.7483 9.74972C11.428 10.0701 10.9934 10.2501 10.5404 10.2501C10.0873 10.2501 9.65277 10.0701 9.33239 9.74972C9.01202 9.42935 8.83203 8.99483 8.83203 8.54175V6.83341C8.83203 4.95425 10.3695 3.41675 12.2487 3.41675Z" fill="url(#paint0_linear_66_8806)"/>
<path d="M15.3165 27.8373C15.9827 28.5035 17.059 28.5035 17.7252 27.8373L23.8547 21.7078C24.175 21.3874 24.3549 20.953 24.3549 20.5C24.3549 20.047 24.175 19.6125 23.8547 19.2922L17.7252 13.1627C17.4005 12.8692 16.9754 12.7117 16.5378 12.7227C16.1002 12.7338 15.6836 12.9125 15.3741 13.222C15.0646 13.5315 14.8858 13.9481 14.8748 14.3857C14.8637 14.8233 15.0212 15.2484 15.3147 15.5731L18.5196 18.7916H3.70833C3.25526 18.7916 2.82073 18.9716 2.50036 19.292C2.17998 19.6124 2 20.0469 2 20.5C2 20.953 2.17998 21.3876 2.50036 21.7079C2.82073 22.0283 3.25526 22.2083 3.70833 22.2083H18.5196L15.3147 25.4268C14.9959 25.747 14.817 26.1805 14.8173 26.6324C14.8176 27.0843 14.9971 27.5176 15.3165 27.8373Z" fill="white"/>
<defs>
<linearGradient id="paint0_linear_66_8806" x1="30.6974" y1="3.07516" x2="9.17237" y2="37.9252" gradientUnits="userSpaceOnUse">
<stop stop-color="#1C9AE7"/>
<stop offset="1" stop-color="#6C5AD7"/>
</linearGradient>
</defs>
</svg>
