<svg width="40" height="40" viewBox="0 0 40 40" fill="none" xmlns="http://www.w3.org/2000/svg">
<path d="M34.9997 20H29.9997V4.99995C30.0009 4.70627 29.9244 4.41749 29.7781 4.16286C29.6317 3.90823 29.4207 3.69679 29.1664 3.54995C28.913 3.40367 28.6256 3.32666 28.333 3.32666C28.0405 3.32666 27.753 3.40367 27.4997 3.54995L22.4997 6.41662L17.4997 3.54995C17.2463 3.40367 16.9589 3.32666 16.6664 3.32666C16.3738 3.32666 16.0864 3.40367 15.833 3.54995L10.833 6.41662L5.83302 3.54995C5.57966 3.40367 5.29225 3.32666 4.99969 3.32666C4.70713 3.32666 4.41972 3.40367 4.16635 3.54995C3.91201 3.69679 3.70099 3.90823 3.55465 4.16286C3.40831 4.41749 3.33186 4.70627 3.33302 4.99995V31.6666C3.33302 32.9927 3.85981 34.2645 4.79749 35.2022C5.73517 36.1398 7.00694 36.6666 8.33302 36.6666H31.6664C32.9924 36.6666 34.2642 36.1398 35.2019 35.2022C36.1396 34.2645 36.6664 32.9927 36.6664 31.6666V21.6666C36.6664 21.2246 36.4908 20.8007 36.1782 20.4881C35.8656 20.1755 35.4417 20 34.9997 20ZM8.33302 33.3333C7.89099 33.3333 7.46707 33.1577 7.15451 32.8451C6.84195 32.5326 6.66635 32.1087 6.66635 31.6666V7.88328L9.99969 9.78328C10.2569 9.91764 10.5428 9.9878 10.833 9.9878C11.1232 9.9878 11.4091 9.91764 11.6664 9.78328L16.6664 6.91662L21.6664 9.78328C21.9236 9.91764 22.2095 9.9878 22.4997 9.9878C22.7899 9.9878 23.0758 9.91764 23.333 9.78328L26.6664 7.88328V31.6666C26.6709 32.2352 26.7723 32.7988 26.9664 33.3333H8.33302ZM33.333 31.6666C33.333 32.1087 33.1574 32.5326 32.8449 32.8451C32.5323 33.1577 32.1084 33.3333 31.6664 33.3333C31.2243 33.3333 30.8004 33.1577 30.4878 32.8451C30.1753 32.5326 29.9997 32.1087 29.9997 31.6666V23.3333H33.333V31.6666Z" fill="url(#paint0_linear_66_8840)"/>
<path d="M15.7843 20.9568H17.0661C17.6959 20.9568 18.1793 20.8127 18.5163 20.5247C18.8483 20.2415 19.0143 19.8459 19.0143 19.3381C19.0143 18.8352 18.8507 18.4446 18.5236 18.1663C18.1867 17.8782 17.7033 17.7341 17.0734 17.7341H15.7843V20.9568ZM15.7843 25.1023V26.4866H13.5724V25.1023H12.2467V23.7034H13.5724V22.656H12.2467V20.9861H13.5724V15.9177H17.7326C18.7824 15.9177 19.6344 16.2351 20.2887 16.8699C20.9333 17.4998 21.2555 18.3152 21.2555 19.3162C21.2555 20.3025 20.921 21.1106 20.2521 21.7405C19.5734 22.3752 18.6969 22.6926 17.6227 22.6926H15.7843V23.7034H18.6481V25.1023H15.7843Z" fill="white"/>
<defs>
<linearGradient id="paint0_linear_66_8840" x1="36.7578" y1="3.24326" x2="3.24432" y2="36.7568" gradientUnits="userSpaceOnUse">
<stop stop-color="#1C9AE7"/>
<stop offset="1" stop-color="#6C5AD7"/>
</linearGradient>
</defs>
</svg>
